<?xml version="1.0" encoding="UTF-8"?>
<!-- Generator: visioncortex VTracer 0.6.12 -->
<svg version="1.1" xmlns="http://www.w3.org/2000/svg" width="1024" height="768" viewBox="0 128 1024 768">

<path d="M0 0 C0.014 0.603 0.028 1.207 0.043 1.828 C0.289 5.951 0.431 8.313 3.125 11.562 C6.848 13.424 8.86 13.552 13 13 C18.404 11.18 22.647 8.694 27 5 C27.66 5 28.32 5 29 5 C29.026 5.664 29.052 6.328 29.078 7.012 C29.432 12.518 29.787 16.042 34 20 C37.181 21.59 40.537 21.406 44 21 C46.812 19.438 46.812 19.438 49 18 C49.99 18.33 50.98 18.66 52 19 C52.103 20.052 52.206 21.104 52.312 22.188 C52.99 25.943 53.691 28.007 56 31 C59.204 33.046 61.739 33.244 65.5 33.188 C66.438 33.181 67.377 33.175 68.344 33.168 C70.706 33.019 72.737 32.667 75 32 C75.206 33.217 75.413 34.434 75.625 35.688 C76.81 40.532 78.953 42.218 83 45 C86.03 46.515 88.651 46.17 92 46 C94.938 45 94.938 45 97 44 C97.371 45.217 97.743 46.434 98.125 47.688 C99.465 51.116 100.896 53.872 103.906 56.168 C108.636 58.047 114.011 57.333 119 57 C119.651 58.725 120.302 60.451 120.953 62.176 C122.357 64.623 123.511 65.639 126 67 C129.453 67.293 129.453 67.293 133.25 67.188 C134.513 67.16 135.777 67.133 137.078 67.105 C137.56 67.088 137.56 67.088 140 67 C140.115 67.932 140.229 68.864 140.348 69.824 C141.183 73.89 142.891 75.346 146 78 C148.405 79.203 149.95 79.101 152.625 79.062 C153.442 79.053 154.26 79.044 155.102 79.035 C155.728 79.024 156.355 79.012 157 79 C157.075 79.557 157.15 80.114 157.227 80.688 C158.311 86.98 160.489 91.434 165 96 C168.384 97.981 171.116 98.378 175 98 C177.103 96.494 177.103 96.494 179.184 94.434 C183.829 90.07 188.738 86.547 194.062 83.062 C194.978 82.459 195.893 81.856 196.836 81.234 C212.849 70.782 229.584 61.454 248 56 C248.681 55.774 249.361 55.549 250.062 55.316 C256.258 53.445 262.587 53.824 269 54 C268.125 60.75 268.125 60.75 267 63 C265.906 76.099 267.808 85.881 276 96.562 C284.071 105.832 293.64 113.087 303.975 119.653 C310.585 123.874 310.585 123.874 313 127 C313 128.65 313 130.3 313 132 C310.195 133.485 310.195 133.485 296 141 C305.586 144.195 305.586 144.195 311 142 C313.877 141.674 316.732 141.675 319.625 141.688 C320 141.679 320 141.679 321.898 141.639 C325.293 141.636 327.582 141.748 330.523 143.52 C331.011 144.008 331.498 144.497 332 145 C330.549 148.825 328.618 150.191 325 152 C324.34 152 323.68 152 323 152 C323 152.66 323 153.32 323 154 C329.097 156.115 333.553 156.332 339.75 153.938 C345.837 152.182 351.806 152.108 357.688 154.5 C358.451 154.995 359.214 155.49 360 156 C360 157.32 360 158.64 360 160 C358.25 161.484 358.25 161.484 356 162.75 C355.258 163.178 354.515 163.606 353.75 164.047 C353.173 164.361 352.595 164.676 352 165 C354.337 167.337 355.827 168.083 359 169 C362.769 168.716 366.114 167.968 369.75 166.938 C374.785 165.652 379.843 165.307 385 166 C388.187 168 388.187 168 390 170 C389.754 171.859 389.754 171.859 389 174 C387.152 175.266 387.152 175.266 384.938 176.25 C384.204 176.585 383.471 176.92 382.715 177.266 C382.149 177.508 381.583 177.75 381 178 C392.464 182.83 392.464 182.83 399 181 C399.376 180.829 399.376 180.829 401.281 179.961 C404.526 178.814 407.19 178.734 410.625 178.75 C411.752 178.745 412.878 178.74 414.039 178.734 C417 179 417 179 420 181 C419.812 182.812 419.812 182.812 419 185 C416.438 186.75 416.438 186.75 414 188 C420.795 190.265 428.666 190.075 435.188 187.062 C440.808 183.842 445.387 179.503 450 175 C450.616 174.423 451.232 173.845 451.867 173.25 C456.099 169.194 459.733 164.728 463.406 160.168 C466.399 156.48 469.509 152.896 472.625 149.312 C472.888 149.01 472.888 149.01 474.219 147.479 C475.272 146.27 476.326 145.062 477.381 143.855 C478.479 142.597 479.574 141.334 480.664 140.069 C499.363 118.452 523.321 96.003 552 89 C558.38 88.69 558.38 88.69 561 90 C560.518 95.175 557.84 98.638 555 102.812 C540.858 124.227 531.292 146.697 523.17 170.982 C518.439 185.106 512.974 198.601 505.938 211.75 C503.692 216.201 503.289 219.022 504 224 C504.532 225.404 505.117 226.788 505.742 228.152 C506.104 228.943 506.466 229.734 506.839 230.549 C508.338 233.713 509.892 236.849 511.449 239.986 C517.19 251.643 521.629 263.576 525.896 275.836 C533.755 298.351 542.53 318.788 556.262 338.401 C556.891 339.319 557.52 340.237 558.168 341.184 C558.738 341.994 559.308 342.804 559.895 343.638 C561.253 346.54 560.926 347.991 560 351 C538.389 351.844 516.283 334.148 500.875 320.625 C491.817 312.211 482.929 303.494 475 294 C474.161 293.015 473.322 292.03 472.457 291.016 C468.083 285.879 463.765 280.716 459.562 275.438 C440.618 252.388 440.618 252.388 427.867 250.721 C423.216 250.433 418.64 250.625 414 251 C415.933 253.025 417.632 254.421 420 256 C419.67 258.474 419.42 259.664 417.438 261.25 C411.61 263.043 407.322 262.308 401.875 259.938 C397.777 258.17 395.37 257.51 391 259 C388.992 259.984 386.991 260.982 385 262 C384.01 262 383.02 262 382 262 C382 262.66 382 263.32 382 264 C382.742 264.103 383.485 264.206 384.25 264.312 C387.17 265.043 388.732 266.068 391 268 C389.63 271.161 389.011 271.993 386 274 C379.646 274.555 373.308 274.583 367.188 272.688 C363.328 271.621 361.409 272.451 357.938 274.375 C356.608 275.225 355.29 276.092 354 277 C356.31 278.65 358.62 280.3 361 282 C360 286 360 286 357.801 287.734 C354.659 289.154 352.617 289.34 349.188 289.25 C348.132 289.232 347.076 289.214 345.988 289.195 C343.496 289.032 341.299 288.668 338.875 288.125 C333.144 287.94 329.57 290.769 325 294 C325.615 294.266 326.23 294.531 326.863 294.805 C327.672 295.158 328.48 295.511 329.312 295.875 C330.113 296.223 330.914 296.571 331.738 296.93 C334 298 334 298 337 300 C335.456 303.69 333.212 306.024 330.375 308.812 C329.475 309.698 328.575 310.584 327.648 311.496 C325.484 313.542 323.289 315.473 321 317.375 C312.44 324.757 305.796 333.791 301 344 C300.661 344.697 300.322 345.395 299.973 346.113 C297.167 352.565 296.875 358.717 299.16 365.387 C300.069 367.646 301.014 369.892 302.004 372.117 C303.017 375.049 303.138 376.179 302 379 C277.671 381.825 244.316 367.231 225.496 352.469 C223.074 350.851 221.75 349.97 218.822 350.087 C216.121 350.877 213.599 351.919 211 353 C208.319 353.939 205.619 354.817 202.922 355.707 C201.428 356.212 199.934 356.718 198.441 357.226 C183.423 362.314 168.442 367.342 153 371 C152.431 371.136 152.431 371.136 149.554 371.822 C98.278 383.834 46.514 387.318 -6 388 C-5.517 388.404 -5.034 388.808 -4.536 389.224 C-3.904 389.758 -3.272 390.292 -2.62 390.842 C-1.993 391.37 -1.366 391.897 -0.719 392.441 C1.431 394.391 2.867 396.426 4.312 398.938 C4.548 399.334 4.548 399.334 5.738 401.34 C8.558 407.285 9.371 413.23 10.243 419.695 C11.69 430.253 13.712 439.454 18.512 448.988 C19.704 451.402 20.514 453.377 21 456 C1.046 455.505 -19.182 442.584 -34 430 C-34.613 429.486 -35.226 428.971 -35.858 428.441 C-48.749 417.611 -48.749 417.611 -51 415 C-51 414.34 -51 413.68 -51 413 C-51.66 413 -52.32 413 -53 413 C-58.125 408.028 -62.383 402.054 -66.688 396.375 C-67.242 395.651 -67.797 394.926 -68.369 394.18 C-72.846 388.302 -72.846 388.302 -74.582 384.886 C-78.076 380.715 -81.45 380.556 -86.672 379.805 C-87.627 379.645 -88.582 379.486 -89.566 379.321 C-92.624 378.815 -95.686 378.343 -98.75 377.875 C-102.746 377.237 -106.741 376.585 -110.734 375.93 C-111.705 375.772 -112.676 375.615 -113.676 375.453 C-121.926 374.086 -129.929 372.178 -138 370 C-140.581 369.344 -143.165 368.704 -145.75 368.062 C-146.489 367.877 -147.227 367.691 -147.989 367.499 C-151.464 366.624 -154.944 365.774 -158.434 364.953 C-173.513 361.364 -188.259 356.778 -203 352 C-204.183 351.617 -205.365 351.234 -206.584 350.84 C-322.504 312.949 -322.504 312.949 -343.562 275.938 C-345.294 272.004 -345.357 269.151 -344 265 C-342.125 262.562 -342.125 262.562 -339 261 C-329.57 259.92 -319.914 262.027 -310.625 263.5 C-308.326 263.86 -306.026 264.217 -303.725 264.57 C-302.306 264.788 -300.887 265.011 -299.468 265.238 C-295.944 265.785 -292.567 266.12 -289 266 C-300.772 258.898 -312.504 252.513 -325.358 247.563 C-331.226 245.198 -335.807 242.664 -339 237 C-339.952 232.927 -339.849 229.777 -338.027 225.965 C-334.555 220.872 -329.854 217.195 -325.047 213.414 C-322.404 211.32 -319.849 209.167 -317.303 206.959 C-310.82 201.354 -304.071 196.301 -297.033 191.419 C-294.777 189.845 -292.539 188.248 -290.301 186.648 C-279.472 178.94 -268.468 171.719 -257 165 C-256.19 164.524 -255.38 164.047 -254.545 163.556 C-209.064 136.909 -159.757 114.437 -108.233 102.522 C-104.644 101.683 -101.073 100.777 -97.5 99.875 C-96.203 99.552 -94.906 99.229 -93.609 98.906 C-91.326 98.333 -89.044 97.751 -86.766 97.156 C-85.77 96.898 -84.775 96.641 -83.75 96.375 C-82.801 96.118 -81.853 95.862 -80.875 95.598 C-78 95 -78 95 -74.875 94.934 C-71.418 94.8 -69.125 94.513 -66 93 C-62.922 88.742 -61.01 84.182 -59.004 79.346 C-57.317 75.404 -55.363 71.61 -53.375 67.812 C-52.966 67.029 -52.556 66.245 -52.135 65.438 C-42.947 48.251 -31.33 31.637 -18.125 17.309 C-16.164 15.178 -14.263 13.008 -12.375 10.812 C-2.928 0 -2.928 0 0 0 Z " fill="#3F739D" transform="translate(404,284)"/>
<path d="M0 0 C0.014 0.603 0.028 1.207 0.043 1.828 C0.289 5.951 0.431 8.313 3.125 11.562 C6.848 13.424 8.86 13.552 13 13 C18.404 11.18 22.647 8.694 27 5 C27.66 5 28.32 5 29 5 C29.026 5.664 29.052 6.328 29.078 7.012 C29.432 12.518 29.787 16.042 34 20 C37.181 21.59 40.537 21.406 44 21 C46.812 19.438 46.812 19.438 49 18 C49.99 18.33 50.98 18.66 52 19 C52.103 20.052 52.206 21.104 52.312 22.188 C52.99 25.943 53.691 28.007 56 31 C59.204 33.046 61.739 33.244 65.5 33.188 C66.438 33.181 67.377 33.175 68.344 33.168 C70.706 33.019 72.737 32.667 75 32 C75.206 33.217 75.413 34.434 75.625 35.688 C76.81 40.532 78.953 42.218 83 45 C86.03 46.515 88.651 46.17 92 46 C94.938 45 94.938 45 97 44 C97.371 45.217 97.743 46.434 98.125 47.688 C99.465 51.116 100.896 53.872 103.906 56.168 C108.636 58.047 114.011 57.333 119 57 C119.651 58.725 120.302 60.451 120.953 62.176 C122.357 64.623 123.511 65.639 126 67 C129.453 67.293 129.453 67.293 133.25 67.188 C134.513 67.16 135.777 67.133 137.078 67.105 C137.56 67.088 137.56 67.088 140 67 C140.115 67.932 140.229 68.864 140.348 69.824 C141.183 73.89 142.891 75.346 146 78 C148.405 79.203 149.95 79.101 152.625 79.062 C153.442 79.053 154.26 79.044 155.102 79.035 C155.728 79.024 156.355 79.012 157 79 C157.075 79.557 157.15 80.114 157.227 80.688 C158.311 86.98 160.489 91.434 165 96 C168.384 97.981 171.116 98.378 175 98 C177.103 96.494 177.103 96.494 179.184 94.434 C183.829 90.07 188.738 86.547 194.062 83.062 C194.978 82.459 195.893 81.856 196.836 81.234 C212.849 70.782 229.584 61.454 248 56 C248.681 55.774 249.361 55.549 250.062 55.316 C256.258 53.445 262.587 53.824 269 54 C268.125 60.75 268.125 60.75 267 63 C265.906 76.099 267.808 85.881 276 96.562 C284.071 105.832 293.64 113.087 303.975 119.653 C310.585 123.874 310.585 123.874 313 127 C313 128.65 313 130.3 313 132 C310.195 133.485 310.195 133.485 296 141 C305.586 144.195 305.586 144.195 311 142 C313.877 141.674 316.732 141.675 319.625 141.688 C320 141.679 320 141.679 321.898 141.639 C325.293 141.636 327.582 141.748 330.523 143.52 C331.011 144.008 331.498 144.497 332 145 C330.549 148.825 328.618 150.191 325 152 C324.34 152 323.68 152 323 152 C323 152.66 323 153.32 323 154 C329.097 156.115 333.553 156.332 339.75 153.938 C345.837 152.182 351.806 152.108 357.688 154.5 C358.451 154.995 359.214 155.49 360 156 C360 157.32 360 158.64 360 160 C358.25 161.484 358.25 161.484 356 162.75 C355.258 163.178 354.515 163.606 353.75 164.047 C353.173 164.361 352.595 164.676 352 165 C354.337 167.337 355.827 168.083 359 169 C362.769 168.716 366.114 167.968 369.75 166.938 C374.785 165.652 379.843 165.307 385 166 C388.187 168 388.187 168 390 170 C389.754 171.859 389.754 171.859 389 174 C387.152 175.266 387.152 175.266 384.938 176.25 C384.204 176.585 383.471 176.92 382.715 177.266 C382.149 177.508 381.583 177.75 381 178 C392.464 182.83 392.464 182.83 399 181 C399.376 180.829 399.376 180.829 401.281 179.961 C404.526 178.814 407.19 178.734 410.625 178.75 C411.752 178.745 412.878 178.74 414.039 178.734 C417 179 417 179 420 181 C419.812 182.812 419.812 182.812 419 185 C416.438 186.75 416.438 186.75 414 188 C420.795 190.265 428.666 190.075 435.188 187.062 C440.808 183.842 445.387 179.503 450 175 C450.616 174.423 451.232 173.845 451.867 173.25 C456.099 169.194 459.733 164.728 463.406 160.168 C466.399 156.48 469.509 152.896 472.625 149.312 C472.888 149.01 472.888 149.01 474.219 147.479 C475.272 146.27 476.326 145.062 477.381 143.855 C478.479 142.597 479.574 141.334 480.664 140.069 C499.363 118.452 523.321 96.003 552 89 C558.38 88.69 558.38 88.69 561 90 C560.518 95.175 557.84 98.638 555 102.812 C540.858 124.227 531.292 146.697 523.17 170.982 C518.439 185.106 512.974 198.601 505.938 211.75 C503.692 216.201 503.289 219.022 504 224 C504.532 225.404 505.117 226.788 505.742 228.152 C506.104 228.943 506.466 229.734 506.839 230.549 C508.338 233.713 509.892 236.849 511.449 239.986 C517.19 251.643 521.629 263.576 525.896 275.836 C533.755 298.351 542.53 318.788 556.262 338.401 C556.891 339.319 557.52 340.237 558.168 341.184 C558.738 341.994 559.308 342.804 559.895 343.638 C561.253 346.54 560.926 347.991 560 351 C538.389 351.844 516.283 334.148 500.875 320.625 C491.817 312.211 482.929 303.494 475 294 C474.161 293.015 473.322 292.03 472.457 291.016 C468.083 285.879 463.765 280.716 459.562 275.438 C440.618 252.388 440.618 252.388 427.867 250.721 C423.216 250.433 418.64 250.625 414 251 C415.933 253.025 417.632 254.421 420 256 C419.67 258.474 419.42 259.664 417.438 261.25 C411.61 263.043 407.322 262.308 401.875 259.938 C397.777 258.17 395.37 257.51 391 259 C388.992 259.984 386.991 260.982 385 262 C384.01 262 383.02 262 382 262 C382 262.66 382 263.32 382 264 C382.742 264.103 383.485 264.206 384.25 264.312 C387.17 265.043 388.732 266.068 391 268 C389.63 271.161 389.011 271.993 386 274 C379.646 274.555 373.308 274.583 367.188 272.688 C363.328 271.621 361.409 272.451 357.938 274.375 C356.608 275.225 355.29 276.092 354 277 C356.31 278.65 358.62 280.3 361 282 C360 286 360 286 357.801 287.734 C354.659 289.154 352.617 289.34 349.188 289.25 C348.132 289.232 347.076 289.214 345.988 289.195 C343.496 289.032 341.299 288.668 338.875 288.125 C333.144 287.94 329.57 290.769 325 294 C325.615 294.266 326.23 294.531 326.863 294.805 C327.672 295.158 328.48 295.511 329.312 295.875 C330.113 296.223 330.914 296.571 331.738 296.93 C334 298 334 298 337 300 C335.456 303.69 333.212 306.024 330.375 308.812 C329.475 309.698 328.575 310.584 327.648 311.496 C325.484 313.542 323.289 315.473 321 317.375 C312.44 324.757 305.796 333.791 301 344 C300.661 344.697 300.322 345.395 299.973 346.113 C297.167 352.565 296.875 358.717 299.16 365.387 C300.069 367.646 301.014 369.892 302.004 372.117 C303.017 375.049 303.138 376.179 302 379 C277.671 381.825 244.316 367.231 225.496 352.469 C223.074 350.851 221.75 349.97 218.822 350.087 C216.121 350.877 213.599 351.919 211 353 C208.319 353.939 205.619 354.817 202.922 355.707 C201.428 356.212 199.934 356.718 198.441 357.226 C183.423 362.314 168.442 367.342 153 371 C152.431 371.136 152.431 371.136 149.554 371.822 C98.278 383.834 46.514 387.318 -6 388 C-5.517 388.404 -5.034 388.808 -4.536 389.224 C-3.904 389.758 -3.272 390.292 -2.62 390.842 C-1.993 391.37 -1.366 391.897 -0.719 392.441 C1.431 394.391 2.867 396.426 4.312 398.938 C4.548 399.334 4.548 399.334 5.738 401.34 C8.558 407.285 9.371 413.23 10.243 419.695 C11.69 430.253 13.712 439.454 18.512 448.988 C19.704 451.402 20.514 453.377 21 456 C1.046 455.505 -19.182 442.584 -34 430 C-34.613 429.486 -35.226 428.971 -35.858 428.441 C-48.749 417.611 -48.749 417.611 -51 415 C-51 414.34 -51 413.68 -51 413 C-51.66 413 -52.32 413 -53 413 C-58.125 408.028 -62.383 402.054 -66.688 396.375 C-67.242 395.651 -67.797 394.926 -68.369 394.18 C-72.846 388.302 -72.846 388.302 -74.582 384.886 C-78.076 380.715 -81.45 380.556 -86.672 379.805 C-87.627 379.645 -88.582 379.486 -89.566 379.321 C-92.624 378.815 -95.686 378.343 -98.75 377.875 C-102.746 377.237 -106.741 376.585 -110.734 375.93 C-111.705 375.772 -112.676 375.615 -113.676 375.453 C-121.926 374.086 -129.929 372.178 -138 370 C-140.581 369.344 -143.165 368.704 -145.75 368.062 C-146.489 367.877 -147.227 367.691 -147.989 367.499 C-151.464 366.624 -154.944 365.774 -158.434 364.953 C-173.513 361.364 -188.259 356.778 -203 352 C-204.183 351.617 -205.365 351.234 -206.584 350.84 C-322.504 312.949 -322.504 312.949 -343.562 275.938 C-345.294 272.004 -345.357 269.151 -344 265 C-342.125 262.562 -342.125 262.562 -339 261 C-329.57 259.92 -319.914 262.027 -310.625 263.5 C-308.326 263.86 -306.026 264.217 -303.725 264.57 C-302.306 264.788 -300.887 265.011 -299.468 265.238 C-295.944 265.785 -292.567 266.12 -289 266 C-300.772 258.898 -312.504 252.513 -325.358 247.563 C-331.226 245.198 -335.807 242.664 -339 237 C-339.952 232.927 -339.849 229.777 -338.027 225.965 C-334.555 220.872 -329.854 217.195 -325.047 213.414 C-322.404 211.32 -319.849 209.167 -317.303 206.959 C-310.82 201.354 -304.071 196.301 -297.033 191.419 C-294.777 189.845 -292.539 188.248 -290.301 186.648 C-279.472 178.94 -268.468 171.719 -257 165 C-256.19 164.524 -255.38 164.047 -254.545 163.556 C-209.064 136.909 -159.757 114.437 -108.233 102.522 C-104.644 101.683 -101.073 100.777 -97.5 99.875 C-96.203 99.552 -94.906 99.229 -93.609 98.906 C-91.326 98.333 -89.044 97.751 -86.766 97.156 C-85.77 96.898 -84.775 96.641 -83.75 96.375 C-82.801 96.118 -81.853 95.862 -80.875 95.598 C-78 95 -78 95 -74.875 94.934 C-71.418 94.8 -69.125 94.513 -66 93 C-62.922 88.742 -61.01 84.182 -59.004 79.346 C-57.317 75.404 -55.363 71.61 -53.375 67.812 C-52.966 67.029 -52.556 66.245 -52.135 65.438 C-42.947 48.251 -31.33 31.637 -18.125 17.309 C-16.164 15.178 -14.263 13.008 -12.375 10.812 C-2.928 0 -2.928 0 0 0 Z M-11 113 C-13.312 113.124 -15.624 113.226 -17.938 113.312 C-53.09 115.178 -88.821 121.854 -122.667 131.368 C-126.481 132.401 -130.333 133.257 -134.188 134.125 C-139.871 135.424 -145.364 137.015 -150.867 138.941 C-154.59 140.199 -158.349 141.288 -162.125 142.375 C-188.38 150.035 -213.671 160.09 -238.392 171.776 C-240.739 172.877 -243.095 173.951 -245.461 175.012 C-265.434 184.027 -284.06 195.467 -302 208 C-302.614 208.428 -303.229 208.855 -303.862 209.296 C-312.561 215.41 -320.486 222.486 -328 230 C-328.041 231.666 -328.043 233.334 -328 235 C-327.684 235.14 -327.684 235.14 -326.083 235.851 C-300.237 247.374 -277.262 260.4 -255.684 278.828 C-255.104 279.322 -254.525 279.815 -253.929 280.324 C-252.799 281.289 -251.674 282.259 -250.552 283.233 C-242.186 290.417 -242.186 290.417 -236.938 290.5 C-233 290 -233 290 -230.5 287.875 C-228.721 284.465 -228.38 282.794 -229 279 C-234.122 270.083 -243.223 266.327 -252.156 261.961 C-253.24 261.431 -254.324 260.9 -255.44 260.354 C-257.632 259.292 -259.83 258.244 -262.036 257.212 C-263.05 256.725 -264.064 256.237 -265.109 255.734 C-266.027 255.304 -266.944 254.873 -267.89 254.429 C-270 253 -270 253 -270.806 250.829 C-270.838 250.527 -270.838 250.527 -271 249 C-269.86 249.545 -268.721 250.091 -267.547 250.652 C-265.948 251.414 -264.349 252.176 -262.75 252.938 C-261.904 253.341 -261.058 253.745 -260.187 254.161 C-255.663 256.309 -251.126 258.4 -246.531 260.391 C-245.647 260.776 -244.763 261.162 -243.853 261.559 C-242.161 262.292 -240.465 263.016 -238.765 263.728 C-232.16 266.604 -225.877 270.076 -223 277 C-222.699 279.875 -222.699 279.875 -222.688 283 C-222.671 284.031 -222.654 285.062 -222.637 286.125 C-223.043 289.341 -223.945 290.57 -226 293 C-226 293.66 -226 294.32 -226 295 C-231.583 297.414 -237.031 298.004 -243 297 C-249.454 294.26 -254.838 290.222 -260.188 285.75 C-272.54 275.654 -292.104 275.937 -307.375 273.875 C-308.005 273.79 -308.005 273.79 -311.19 273.358 C-318.782 272.353 -326.362 271.553 -334 271 C-324.724 287.01 -304.88 296.373 -289.125 304.849 C-287.207 305.888 -285.303 306.948 -283.402 308.02 C-255.601 323.409 -225.089 334.041 -195 344 C-194.376 344.21 -194.376 344.21 -191.219 345.273 C-187.09 346.205 -183.216 346.255 -179 346.188 C-178.616 346.187 -178.616 346.187 -176.672 346.186 C-172.021 346.15 -167.588 345.763 -163 345 C-163 344.34 -163 343.68 -163 343 C-163.388 342.957 -163.388 342.957 -165.352 342.738 C-179.306 340.923 -194.103 336.639 -204 326 C-203.068 326.531 -202.136 327.062 -201.176 327.609 C-184.1 337.146 -163.337 343.172 -143.727 338.164 C-141.248 336.969 -139.198 335.655 -137 334 C-136.5 333.651 -136.5 333.651 -133.973 331.887 C-131.275 329.972 -128.626 328.012 -126 326 C-129.898 324.701 -131.432 325.656 -135.312 326.938 C-149.967 331.278 -167.279 330.934 -181 324 C-180.412 324.139 -179.823 324.279 -179.217 324.422 C-157.015 329.315 -134.361 325.958 -115 314 C-106.351 307.56 -99.746 295.971 -96 286 C-96.33 285.34 -96.66 284.68 -97 284 C-97.339 284.393 -97.339 284.393 -99.055 286.379 C-112.213 301.35 -129.653 312.47 -149.91 313.887 C-150.6 313.924 -151.289 313.961 -152 314 C-150.863 313.66 -149.726 313.319 -148.555 312.969 C-126.054 306.002 -106.198 293.549 -94.634 272.305 C-93.728 270.551 -92.863 268.776 -92 267 C-91.544 266.065 -91.087 265.131 -90.617 264.168 C-82.68 243.882 -87.884 217.885 -95.924 198.386 C-97.545 194.791 -99.452 191.453 -101.562 188.125 C-101.994 187.444 -102.425 186.762 -102.869 186.061 C-109.712 175.553 -118.157 166.502 -129 160 C-129.66 160 -130.32 160 -131 160 C-131 159.34 -131 158.68 -131 158 C-120.582 162.436 -111.956 166.706 -104 175 C-103.113 175.804 -102.226 176.609 -101.312 177.438 C-82.715 198.046 -77.753 224.141 -79 251 C-80.819 275.469 -90.544 299.763 -107 318 C-107.708 318.849 -108.415 319.699 -109.145 320.574 C-121.46 335.064 -138.394 344.842 -156.731 349.505 C-158.5 349.956 -160.252 350.472 -162 351 C-162.33 351.66 -162.66 352.32 -163 353 C-158.829 354.136 -154.653 355.25 -150.473 356.35 C-148.792 356.792 -147.113 357.236 -145.434 357.682 C-121.339 364.047 -97.02 368.801 -72.268 371.716 C-69.351 372.081 -66.46 372.565 -63.562 373.062 C-57.524 374.02 -51.464 374.549 -45.375 375.062 C-44.907 375.102 -44.907 375.102 -42.541 375.303 C-26.178 376.616 -9.851 377.204 6.562 377.188 C7.024 377.188 7.024 377.188 9.361 377.188 C26.102 377.172 42.738 376.515 59.429 375.265 C62.589 375.03 65.748 374.826 68.91 374.633 C143.889 369.608 219.433 344.822 284 307 C284.903 306.473 285.806 305.946 286.736 305.403 C296.326 299.796 305.856 294.091 315.371 288.359 C392.904 241.689 392.904 241.689 425.438 241.562 C426.168 241.558 426.899 241.553 427.652 241.549 C433.425 241.666 437.541 243.227 442.652 245.934 C446.413 247.642 449.173 247.362 453 246 C461.106 242.687 467.488 237.166 470.938 229 C473.267 221.576 472.187 214.946 469 208 C465.148 200.834 459.46 197.028 452 194 C447.934 192.984 445.639 192.667 442 194.812 C421.12 206.238 393.575 198.674 372.183 192.413 C349.963 185.814 328.442 177.244 306.913 168.705 C294.999 163.981 283.029 159.424 271 155 C269.969 154.619 268.939 154.237 267.877 153.844 C254.861 149.036 241.828 144.523 228.484 140.71 C225.872 139.963 223.264 139.203 220.656 138.441 C210.84 135.588 201.005 132.888 191.064 130.502 C188.92 129.981 186.782 129.437 184.645 128.891 C156.525 121.816 127.972 117.049 99.132 114.213 C96.991 113.999 94.851 113.774 92.712 113.547 C58.819 109.97 22.827 108.162 -11 113 Z " fill="#183C57" transform="translate(404,284)"/>
<path d="M0 0 C18.113 2.911 34.452 13.799 49.375 23.875 C50.227 24.447 51.079 25.019 51.956 25.608 C52.349 25.878 52.349 25.878 54.336 27.242 C55.043 27.725 55.75 28.209 56.478 28.707 C56.729 28.92 56.729 28.92 58 30 C58 30.66 58 31.32 58 32 C57.362 32.2 56.724 32.401 56.067 32.607 C43.718 36.519 31.768 40.64 20.168 46.434 C17 48 17 48 14 49 C14 50.32 14 51.64 14 53 C14.629 53.098 15.258 53.196 15.906 53.297 C25.283 54.935 32.4 57.71 38.191 65.629 C40.914 69.869 41.632 73.035 41 78 C39.578 81.522 38.139 84.74 35 87 C33.68 87 32.36 87 31 87 C31 87.99 31 88.98 31 90 C35.259 91.788 39.594 93.193 44 94.562 C44.699 94.784 45.397 95.005 46.117 95.232 C62.088 100.22 78.289 99.25 93.25 91.625 C101.263 87.303 108.065 81.586 114.974 75.711 C118.377 72.837 121.842 70.042 125.312 67.25 C125.941 66.737 126.569 66.223 127.217 65.694 C129.799 63.612 131.826 62.058 135 61 C138.534 61.495 142.014 62.127 145.518 62.797 C157.221 64.919 169.087 65.159 180.953 65.203 C181.596 65.207 181.596 65.207 184.851 65.225 C188.984 65.245 193.117 65.25 197.25 65.25 C197.957 65.25 198.664 65.25 199.393 65.25 C244.03 65.23 287.461 59.954 331.108 50.408 C333.517 49.888 335.933 49.411 338.352 48.941 C344.391 47.748 350.38 46.333 356.375 44.938 C357.536 44.669 358.698 44.4 359.895 44.123 C368.88 42.04 368.88 42.04 371.206 41.26 C371.798 41.174 372.39 41.088 373 41 C373.804 41.825 374.609 42.65 375.438 43.5 C376.283 44.325 377.129 45.15 378 46 C380.812 45.812 380.812 45.812 383 45 C383.66 42.69 384.32 40.38 385 38 C400.84 34.04 416.68 30.08 433 26 C425.245 25.897 417.49 25.794 409.5 25.688 C286.767 23.636 286.767 23.636 230 14 C230 13.34 230 12.68 230 12 C254.957 11.823 279.889 12.311 304.838 12.869 C308.962 12.96 313.086 13.048 317.21 13.136 C321.295 13.223 325.381 13.311 329.466 13.401 C331.363 13.442 333.259 13.483 335.156 13.524 C344.166 13.718 353.175 13.93 362.182 14.246 C382.377 14.948 402.553 15.191 422.76 15.27 C427.196 15.289 431.631 15.313 436.067 15.337 C449.164 15.406 462.26 15.467 475.356 15.526 C485.622 15.573 495.888 15.622 506.154 15.678 C511.407 15.706 516.661 15.729 521.914 15.749 C525.166 15.763 528.418 15.78 531.67 15.799 C533.173 15.807 534.677 15.813 536.181 15.817 C538.235 15.823 540.289 15.835 542.344 15.849 C543.491 15.854 544.639 15.859 545.821 15.864 C548.958 15.998 551.918 16.415 555 17 C554.632 25.111 552.848 30.553 546.875 36.188 C541.999 40.088 536.257 43 529.938 43 C527 42 527 42 525.234 41.027 C513.382 34.717 498.631 37.653 486.305 41.294 C485.544 41.527 484.784 41.76 484 42 C483.206 42.242 482.412 42.484 481.594 42.733 C455.471 50.952 431.333 64.923 408 79 C406.2 80.076 404.399 81.152 402.598 82.227 C396.441 85.905 390.298 89.607 384.164 93.324 C356.439 110.1 328.331 125.439 298 137 C297.01 137.385 296.019 137.769 294.999 138.166 C266.637 149.13 236.904 157.534 207 163 C206.659 163.063 206.659 163.063 204.934 163.38 C181.707 167.638 158.557 170.436 135 172 C134.023 172.071 133.045 172.141 132.039 172.214 C101.166 174.401 69.813 173.605 39 171 C37.929 170.915 36.858 170.829 35.755 170.741 C32.773 170.503 29.793 170.255 26.812 170 C26.397 169.965 26.397 169.965 24.296 169.786 C18.887 169.283 13.569 168.468 8.217 167.544 C4.85 166.975 1.478 166.461 -1.898 165.957 C-19.025 163.358 -35.739 159.976 -52.569 155.834 C-55.866 155.033 -59.168 154.265 -62.477 153.512 C-63.459 153.286 -64.442 153.061 -65.455 152.828 C-67.264 152.414 -69.074 152.003 -70.885 151.598 C-76.775 150.225 -76.775 150.225 -79 148 C-78.392 147.804 -78.392 147.804 -75.312 146.812 C-60.626 141.871 -46.88 136.167 -35 126 C-34.212 125.357 -33.425 124.714 -32.613 124.051 C-10.186 105.003 2.621 76.043 5 47 C5.588 36.259 5.704 25.474 3 15 C2.736 13.939 2.471 12.878 2.199 11.785 C1.675 9.697 1.139 7.612 0.586 5.531 C0 3 0 3 0 0 Z " fill="#DEEEF6" transform="translate(320,488)"/>
<path d="M0 0 C0.616 -0.005 0.616 -0.005 3.734 -0.029 C21.786 0.036 38.61 2.54 52.062 15.438 C54.898 18.384 57.402 21.544 59.938 24.75 C65.855 32.076 73.19 39.28 82.938 40.562 C88.963 40.856 93.779 40.052 98.562 36.25 C101.793 32.756 104.676 29.031 107.562 25.25 C108.732 23.756 109.917 22.275 111.125 20.812 C111.601 20.216 112.076 19.619 112.566 19.004 C118.652 13.657 124.661 12.629 132.562 12.812 C133.394 12.805 134.225 12.798 135.082 12.791 C150.561 12.942 165.959 17.685 180.881 21.384 C184.122 22.187 187.364 22.984 190.607 23.779 C200.353 26.177 210.078 28.627 219.768 31.242 C281.29 47.585 343.287 58.551 407.125 58.5 C407.532 58.5 407.532 58.5 409.589 58.498 C420.609 58.467 431.569 58.002 442.562 57.25 C443.5 61.731 443.64 65.679 443.562 70.25 C443.232 68.93 442.903 67.61 442.562 66.25 C442.144 66.248 442.144 66.248 440.028 66.237 C419.521 66.133 399.014 66.024 378.507 65.911 C368.589 65.856 358.672 65.802 348.754 65.753 C340.093 65.709 331.432 65.663 322.771 65.613 C318.2 65.587 313.629 65.562 309.059 65.541 C288.03 65.442 267.039 65.099 246.023 64.365 C238.257 64.108 230.487 63.958 222.718 63.804 C219.813 63.747 216.908 63.687 214.002 63.627 C206.802 63.478 199.601 63.333 192.401 63.188 C185.276 63.044 178.152 62.898 171.027 62.75 C170.051 62.73 169.074 62.709 168.068 62.689 C151.228 62.335 134.395 61.858 117.562 61.25 C117.562 61.91 117.562 62.57 117.562 63.25 C118.483 63.299 119.403 63.348 120.352 63.398 C120.984 63.436 120.984 63.436 124.188 63.625 C125.417 63.695 126.647 63.764 127.914 63.836 C131.5 64.104 135.011 64.614 138.562 65.168 C149.3 66.739 160.119 67.415 170.938 68.188 C172.121 68.273 173.304 68.358 174.524 68.446 C224.173 71.989 273.796 73.751 323.562 74.25 C320.841 76.064 319.32 76.718 316.246 77.487 C315.379 77.707 314.511 77.927 313.617 78.154 C312.682 78.384 311.748 78.614 310.785 78.852 C309.822 79.093 308.859 79.334 307.867 79.583 C305.831 80.092 303.795 80.597 301.757 81.101 C298.639 81.872 295.523 82.654 292.408 83.438 C290.43 83.93 288.451 84.423 286.473 84.914 C285.54 85.148 284.608 85.383 283.647 85.624 C282.776 85.838 281.905 86.052 281.008 86.272 C280.626 86.367 280.626 86.367 278.694 86.846 C276.562 87.25 276.562 87.25 272.562 87.25 C272.459 88.364 272.356 89.477 272.25 90.625 C272.137 91.223 272.137 91.223 271.562 94.25 C268.562 96.25 268.562 96.25 266.125 96.125 C263.562 95.25 263.562 95.25 261.74 93.142 C259.562 91.25 259.562 91.25 257.016 91.315 C256.076 91.575 255.136 91.834 254.168 92.102 C253.13 92.376 252.091 92.651 251.021 92.934 C249.942 93.244 248.862 93.555 247.75 93.875 C246.682 94.162 245.614 94.45 244.514 94.746 C240.383 95.865 236.271 97.038 232.171 98.267 C228.467 99.276 224.812 99.984 221.027 100.625 C219.518 100.884 218.009 101.143 216.5 101.402 C215.7 101.539 214.901 101.675 214.077 101.816 C210.566 102.422 207.059 103.054 203.552 103.685 C161.201 111.296 161.201 111.296 142.951 112.934 C140.317 113.18 137.693 113.458 135.064 113.754 C120.115 115.365 105.216 115.561 90.195 115.511 C86.753 115.499 83.312 115.506 79.87 115.518 C40.118 115.63 40.118 115.63 26.375 111.625 C23.184 110.997 21.931 111.075 18.961 112.484 C15.971 114.57 13.288 116.829 10.562 119.25 C9.448 120.217 8.332 121.181 7.215 122.145 C5.441 123.675 3.667 125.205 1.897 126.741 C-14.589 140.945 -31.237 149.598 -53.243 148.454 C-62.386 147.604 -71.294 144.39 -79.438 140.25 C-80.097 139.92 -80.757 139.59 -81.438 139.25 C-81.438 138.26 -81.438 137.27 -81.438 136.25 C-81.056 136.126 -81.056 136.126 -79.125 135.5 C-76.151 134.117 -75.116 133.02 -73.438 130.25 C-72.209 126.565 -72.055 124.136 -72.438 120.25 C-73.592 118.013 -74.891 116.004 -76.344 113.949 C-77.438 112.25 -77.438 112.25 -77.438 110.25 C-84.141 106.798 -91.146 104.152 -98.438 102.25 C-98.438 100.93 -98.438 99.61 -98.438 98.25 C-90.242 93.469 -82.037 89.496 -73.062 86.375 C-72.244 86.089 -71.425 85.804 -70.581 85.51 C-65.255 83.715 -59.941 82.386 -54.438 81.25 C-64.741 69.591 -85.049 57.812 -100.215 53.93 C-112.944 50.668 -112.944 50.668 -116.172 45.57 C-117.939 42.226 -119.27 38.768 -120.561 35.219 C-121.533 33.036 -122.75 31.33 -124.199 29.434 C-124.938 28.383 -125.676 27.332 -126.438 26.25 C-126.108 25.26 -125.777 24.27 -125.438 23.25 C-122.6 22.087 -122.6 22.087 -118.781 20.98 C-118.096 20.779 -117.411 20.577 -116.705 20.37 C-114.453 19.712 -112.196 19.074 -109.938 18.438 C-108.372 17.989 -106.807 17.54 -105.241 17.091 C-70.783 7.272 -35.932 0.205 0 0 Z " fill="#ACD4E7" transform="translate(432.4375,438.75)"/>
<path d="M0 0 C8.414 4.773 12.401 9.478 15.105 18.762 C15.477 19.908 15.848 21.054 16.23 22.234 C21.074 38.557 22.549 60.081 15.105 75.762 C14.705 76.669 14.304 77.577 13.891 78.512 C4.15 98.387 -14.396 112.419 -34.895 119.762 C-38.208 120.842 -41.532 121.847 -44.895 122.762 C-27.159 122.687 -10.773 113.365 2.105 101.762 C4.89 98.855 7.537 95.861 10.105 92.762 C10.435 93.422 10.765 94.082 11.105 94.762 C4.81 109.375 -3.041 121.57 -18.027 128.258 C-19.313 128.768 -20.602 129.269 -21.895 129.762 C-22.554 130.017 -23.214 130.273 -23.894 130.536 C-40.304 136.613 -57.924 136.344 -74.895 132.762 C-74.099 133.059 -73.303 133.356 -72.483 133.662 C-70.585 134.371 -68.687 135.08 -66.789 135.789 C-53.554 140.237 -37.757 138.854 -24.695 134.539 C-21.895 133.762 -21.895 133.762 -18.895 134.762 C-21.076 136.374 -23.264 137.977 -25.457 139.574 C-26.066 140.026 -26.675 140.478 -27.303 140.943 C-34.894 146.446 -41.143 148.275 -50.457 148.137 C-51.431 148.127 -52.406 148.118 -53.41 148.108 C-69.978 147.764 -83.992 142.712 -97.895 133.762 C-88.758 144.529 -73.133 149.995 -59.395 151.574 C-58.24 151.636 -57.085 151.698 -55.895 151.762 C-55.895 152.422 -55.895 153.082 -55.895 153.762 C-71.105 156.19 -83.863 154.701 -98.27 149.449 C-99.844 148.897 -101.419 148.346 -102.995 147.796 C-107.644 146.162 -112.271 144.468 -116.895 142.762 C-118.191 142.287 -119.488 141.813 -120.785 141.339 C-156.93 128.005 -199.105 111.44 -225.895 82.762 C-226.225 81.772 -226.555 80.782 -226.895 79.762 C-217.561 80.398 -208.325 81.547 -199.06 82.809 C-196.663 83.134 -194.265 83.452 -191.867 83.77 C-184.255 84.789 -176.658 85.893 -169.094 87.223 C-167.847 87.44 -166.6 87.657 -165.315 87.88 C-156.929 90.041 -150.546 96.009 -143.867 101.25 C-137.674 105.996 -132.49 106.405 -124.895 105.762 C-119.456 104.617 -119.456 104.617 -117.582 101.762 C-117.355 101.102 -117.128 100.442 -116.895 99.762 C-116.565 99.102 -116.235 98.442 -115.895 97.762 C-115.401 92.357 -115.186 87.425 -117.332 82.387 C-124.615 74.926 -134.236 71.142 -143.645 67.074 C-145.602 66.221 -147.559 65.365 -149.514 64.506 C-151.277 63.732 -153.042 62.966 -154.808 62.2 C-157.638 60.881 -160.254 59.423 -162.895 57.762 C-162.565 56.772 -162.235 55.782 -161.895 54.762 C-152.73 54.374 -142.646 54.845 -133.895 57.762 C-119.727 58.607 -106.116 58.43 -94.824 48.668 C-86.642 40.585 -83.262 31.815 -81.957 20.449 C-81.228 14.559 -80.414 11.635 -75.895 7.762 C-70.717 4.526 -64.764 5.127 -58.895 5.762 C-51.928 7.72 -47.763 11.182 -44.133 17.379 C-43.724 18.165 -43.316 18.952 -42.895 19.762 C-42.517 20.486 -42.139 21.211 -41.75 21.957 C-33.013 40.217 -31.777 64.494 -37.895 83.762 C-43.54 98.16 -52.099 108.549 -66.355 114.849 C-73.437 117.604 -80.025 118.567 -87.582 119.012 C-88.13 119.05 -88.13 119.05 -90.9 119.246 C-93.564 119.432 -96.229 119.604 -98.895 119.762 C-83.136 123.643 -68.067 122.252 -53.676 114.469 C-40.303 106.261 -34.019 93.731 -30.278 78.95 C-28.513 71.116 -28.394 63.763 -28.895 55.762 C-28.916 54.813 -28.938 53.864 -28.961 52.887 C-29.429 42.744 -32.768 32.285 -37.707 23.449 C-40.461 18.281 -40.873 13.517 -39.895 7.762 C-37.373 2.626 -33.825 -0.819 -28.668 -3.316 C-18.846 -6.581 -9.032 -4.378 0 0 Z " fill="#DCEEF6" transform="translate(296.89453125,475.23828125)"/>
<path d="M0 0 C-4.057 4.44 -8.27 6.364 -14 8 C-17.109 8 -19.052 7.522 -21.766 6.027 C-33.618 -0.283 -48.369 2.653 -60.695 6.294 C-61.456 6.527 -62.216 6.76 -63 7 C-63.794 7.242 -64.588 7.484 -65.406 7.733 C-91.529 15.952 -115.667 29.923 -139 44 C-140.8 45.076 -142.601 46.152 -144.402 47.227 C-150.559 50.905 -156.702 54.607 -162.836 58.324 C-190.561 75.1 -218.669 90.439 -249 102 C-249.99 102.385 -250.981 102.769 -252.001 103.166 C-280.363 114.13 -310.096 122.534 -340 128 C-340.341 128.063 -340.341 128.063 -342.066 128.38 C-365.293 132.638 -388.443 135.436 -412 137 C-412.977 137.071 -413.955 137.141 -414.961 137.214 C-445.834 139.401 -477.187 138.605 -508 136 C-509.071 135.915 -510.142 135.829 -511.245 135.741 C-514.227 135.503 -517.207 135.255 -520.188 135 C-520.603 134.965 -520.603 134.965 -522.704 134.786 C-528.113 134.283 -533.431 133.468 -538.783 132.544 C-542.15 131.975 -545.522 131.461 -548.898 130.957 C-566.025 128.358 -582.739 124.976 -599.569 120.834 C-602.866 120.033 -606.168 119.265 -609.477 118.512 C-610.459 118.286 -611.442 118.061 -612.455 117.828 C-614.264 117.414 -616.074 117.003 -617.885 116.598 C-623.775 115.225 -623.775 115.225 -626 113 C-625.392 112.804 -625.392 112.804 -622.312 111.812 C-608.384 107.126 -595.139 101.842 -583.707 92.383 C-582 91 -582 91 -580 90 C-577.868 90.374 -577.868 90.374 -575.23 91.074 C-574.266 91.328 -573.302 91.581 -572.308 91.842 C-571.278 92.121 -570.249 92.4 -569.188 92.688 C-568.134 92.966 -567.081 93.245 -565.997 93.533 C-560.742 94.938 -555.541 96.421 -550.375 98.125 C-542.368 100.655 -534.137 102.054 -525.877 103.496 C-523.98 103.828 -522.084 104.168 -520.189 104.516 C-492.611 109.568 -465.059 111.277 -437.062 111.25 C-436.564 111.25 -436.564 111.25 -434.042 111.248 C-415.956 111.207 -397.85 110.819 -379.875 108.688 C-379.315 108.623 -379.315 108.623 -376.479 108.294 C-350.737 105.241 -325.361 101.106 -300.474 93.732 C-298.738 93.218 -297 92.711 -295.261 92.209 C-247.152 78.291 -199.849 58.285 -157.488 31.406 C-143.044 22.332 -126.937 15.98 -111.087 9.83 C-108.439 8.777 -105.849 7.606 -103.25 6.438 C-97.275 3.921 -91.089 2.136 -84.875 0.312 C-83.861 0.015 -82.847 -0.283 -81.802 -0.59 C-55.545 -8.117 -26.127 -8.813 0 0 Z " fill="#B5D6E8" transform="translate(867,523)"/>
<path d="M0 0 C0.859 -0.008 1.718 -0.016 2.603 -0.024 C11.973 -0.091 21.116 0.276 30.387 1.711 C31.14 1.827 31.892 1.943 32.668 2.063 C46.192 4.38 46.192 4.38 50.188 8.375 C50.227 10.773 50.227 10.773 49.188 13.375 C46.952 14.859 44.987 15.917 42.562 17 C42.214 17.165 42.214 17.165 40.452 18.002 C38.039 19.144 35.614 20.26 33.188 21.375 C7.717 33.196 7.717 33.196 -1.812 40.375 C-2.85 41.143 -3.888 41.912 -4.957 42.703 C-10.582 46.921 -15.988 51.349 -21.312 55.938 C-38.213 70.403 -54.995 79.755 -77.618 78.579 C-86.761 77.729 -95.669 74.515 -103.812 70.375 C-104.473 70.045 -105.132 69.715 -105.812 69.375 C-105.812 68.385 -105.812 67.395 -105.812 66.375 C-105.049 66.128 -104.286 65.88 -103.5 65.625 C-100.526 64.242 -99.491 63.145 -97.812 60.375 C-96.584 56.69 -96.43 54.261 -96.812 50.375 C-97.967 48.138 -99.266 46.129 -100.719 44.074 C-101.812 42.375 -101.812 42.375 -101.812 40.375 C-108.516 36.923 -115.521 34.277 -122.812 32.375 C-122.812 31.055 -122.812 29.735 -122.812 28.375 C-99.05 14.513 -71.781 7.81 -44.812 3.375 C-43.957 3.224 -43.101 3.073 -42.22 2.917 C-28.18 0.49 -14.212 0.064 0 0 Z " fill="#173D59" transform="translate(456.8125,508.625)"/>
<path d="M0 0 C0.66 0.33 1.32 0.66 2 1 C-23.635 18.649 -53.043 32.687 -82 44 C-83.124 44.444 -84.247 44.888 -85.405 45.346 C-129.403 62.684 -175.385 74.451 -222.5 79.125 C-223.244 79.201 -223.989 79.276 -224.756 79.354 C-277.747 84.257 -332.402 81.917 -384.332 69.934 C-385.043 69.771 -385.753 69.609 -386.485 69.442 C-389.885 68.632 -392.964 67.755 -396 66 C-396 65.34 -396 64.68 -396 64 C-395.403 64.055 -394.806 64.111 -394.19 64.168 C-391.356 64.428 -388.522 64.683 -385.688 64.938 C-384.75 65.025 -383.812 65.112 -382.846 65.201 C-366.092 66.694 -349.387 67.153 -332.574 67.133 C-330.569 67.133 -328.564 67.134 -326.559 67.136 C-322.386 67.137 -318.214 67.135 -314.041 67.13 C-308.761 67.125 -303.48 67.128 -298.2 67.134 C-294.066 67.138 -289.933 67.136 -285.8 67.134 C-283.856 67.133 -281.912 67.134 -279.969 67.136 C-261.927 67.153 -243.837 66.947 -225.938 64.5 C-223.813 64.226 -221.688 63.953 -219.562 63.684 C-218.588 63.56 -217.613 63.436 -216.609 63.308 C-213.555 62.948 -210.508 62.73 -207.438 62.562 C-198.159 61.949 -188.994 60.098 -179.846 58.497 C-177.404 58.07 -174.961 57.655 -172.516 57.246 C-133.283 50.625 -94.916 39.854 -58 25 C-57.644 24.858 -57.644 24.858 -55.844 24.139 C-41.284 18.309 -26.869 12.058 -12.602 5.547 C-11.769 5.169 -10.937 4.791 -10.08 4.402 C-8.519 3.691 -6.961 2.974 -5.406 2.248 C-3.63 1.44 -1.818 0.711 0 0 Z " fill="#FAFDFE" transform="translate(707,554)"/>
<path d="M0 0 C8.308 4.713 12.471 9.505 15.105 18.762 C17.32 27.351 16.321 37.899 12.105 45.762 C11.263 47.082 10.409 48.394 9.543 49.699 C7.629 52.598 6.683 54.974 6.043 58.387 C4.772 65.125 1.025 69.303 -4.145 73.57 C-6.337 75.063 -8.255 75.602 -10.895 75.762 C-10.977 76.917 -11.06 78.072 -11.145 79.262 C-12.143 86.909 -15.739 92.052 -21.113 97.414 C-23.047 98.877 -24.524 99.351 -26.895 99.762 C-25.4 96.366 -23.347 93.575 -21.113 90.641 C-16.401 83.376 -16.956 74.111 -17.895 65.762 C-19.677 58.99 -22.754 52.987 -25.895 46.762 C-19.845 49.322 -16.225 54.806 -13.59 60.66 C-12.126 64.646 -10.877 68.631 -9.895 72.762 C-4.486 69.362 -1.999 64.634 0.105 58.762 C1.36 51.75 -0.528 44.68 -4.176 38.641 C-7.805 34.673 -13.887 33.148 -19.113 32.477 C-22.483 32.43 -25.798 32.855 -29.133 33.281 C-30.374 33.44 -31.616 33.598 -32.895 33.762 C-41.837 16.858 -41.837 16.858 -39.895 7.762 C-37.373 2.626 -33.825 -0.819 -28.668 -3.316 C-18.846 -6.581 -9.032 -4.378 0 0 Z " fill="#ADD4E8" transform="translate(296.89453125,475.23828125)"/>
<path d="M0 0 C24.957 -0.177 49.889 0.311 74.838 0.869 C78.962 0.96 83.086 1.048 87.21 1.136 C91.295 1.223 95.381 1.311 99.466 1.401 C101.363 1.442 103.259 1.483 105.156 1.524 C107.847 1.582 110.539 1.642 113.23 1.703 C114.143 1.724 115.055 1.744 115.995 1.766 C121.391 1.895 126.784 2.057 132.178 2.247 C151.553 2.924 170.907 3.172 190.293 3.23 C195.594 3.246 200.894 3.27 206.195 3.295 C221.236 3.365 236.277 3.426 251.318 3.477 C259.69 3.505 268.063 3.54 276.436 3.583 C281.705 3.61 286.975 3.628 292.244 3.639 C295.499 3.649 298.754 3.666 302.009 3.686 C303.519 3.693 305.028 3.697 306.538 3.698 C308.594 3.699 310.649 3.712 312.704 3.728 C313.855 3.732 315.005 3.737 316.19 3.741 C319 4 319 4 322 6 C306.06 8.318 290.204 9.745 274.125 10.625 C272.013 10.747 269.901 10.869 267.789 10.992 C263.702 11.23 259.616 11.46 255.528 11.685 C252.213 11.869 248.901 12.07 245.589 12.308 C237.542 12.875 229.547 13.064 221.482 13.047 C220.389 13.045 219.295 13.044 218.169 13.043 C206.689 13.016 195.212 12.86 183.734 12.668 C182.633 12.65 181.532 12.631 180.397 12.612 C174.555 12.515 168.713 12.414 162.871 12.31 C158.159 12.228 153.448 12.151 148.737 12.081 C117.737 11.614 86.91 10.433 56 8 C54.272 7.866 52.544 7.731 50.816 7.597 C33.796 6.267 16.859 4.761 0 2 C0 1.34 0 0.68 0 0 Z " fill="#F6FDFE" transform="translate(550,500)"/>
<path d="M0 0 C3.407 0.554 5.93 1.339 8.875 3.125 C19.81 9.415 31.634 14.247 43.208 19.229 C44.751 19.893 46.292 20.563 47.832 21.234 C71.957 31.548 96.921 40.386 123 44 C123.936 44.13 124.872 44.26 125.836 44.395 C130.319 44.925 134.614 44.959 139.125 44.812 C143.934 44.757 146.868 45.49 150.962 47.934 C157.553 51.381 165.354 51.385 172.625 51.375 C173.581 51.377 174.537 51.379 175.523 51.381 C182.873 51.277 189.241 50.076 196.199 47.777 C199 47 199 47 202 48 C199.818 49.613 197.63 51.215 195.438 52.812 C194.828 53.264 194.219 53.716 193.592 54.182 C186.001 59.684 179.752 61.514 170.438 61.375 C169.463 61.366 168.489 61.356 167.485 61.346 C150.916 61.002 136.902 55.95 123 47 C132.136 57.768 147.761 63.233 161.5 64.812 C162.655 64.874 163.81 64.936 165 65 C165 65.66 165 66.32 165 67 C149.789 69.428 137.031 67.94 122.625 62.688 C121.051 62.135 119.476 61.584 117.9 61.035 C113.25 59.4 108.624 57.707 104 56 C102.703 55.526 101.406 55.052 100.109 54.578 C65.997 41.993 26.609 26.512 0 1 C0 0.67 0 0.34 0 0 Z " fill="#B4D6E8" transform="translate(76,562)"/>
<path d="M0 0 C2.016 0.005 4.032 0 6.048 -0.006 C7.339 -0.005 8.629 -0.004 9.958 -0.002 C10.54 -0.002 10.54 -0.002 13.482 0.001 C17.011 0.135 20.404 0.572 23.888 1.13 C23.888 1.46 23.888 1.79 23.888 2.13 C23.13 2.175 22.372 2.22 21.591 2.266 C-62.448 7.354 -62.448 7.354 -89.112 25.13 C-88.544 25.022 -87.976 24.914 -87.39 24.802 C-81.404 23.662 -75.416 22.527 -69.428 21.395 C-67.202 20.974 -64.977 20.551 -62.751 20.126 C-45.221 16.785 -28.267 13.773 -10.362 13.88 C-9.01 13.873 -7.659 13.865 -6.307 13.857 C-5.031 13.86 -3.755 13.862 -2.44 13.865 C-1.294 13.867 -0.149 13.869 1.032 13.872 C3.888 14.13 3.888 14.13 6.888 16.13 C5.593 16.168 4.297 16.205 2.962 16.244 C-25.673 17.23 -53.895 23.288 -81.112 32.13 C-74.265 32.243 -67.611 31.775 -60.799 31.13 C-46.901 29.9 -33.053 29.927 -19.112 30.13 C-18.947 30.46 -18.947 30.46 -18.112 32.13 C-18.865 32.2 -19.617 32.27 -20.393 32.342 C-35.715 33.788 -50.847 35.552 -66.002 38.263 C-70.693 39.095 -75.372 39.656 -80.112 40.13 C-80.112 40.79 -80.112 41.45 -80.112 42.13 C-79.796 42.122 -79.796 42.122 -78.196 42.082 C-70.439 41.975 -62.876 42.629 -55.174 43.505 C-53.97 43.632 -52.765 43.758 -51.524 43.888 C-50.368 44.017 -49.213 44.146 -48.022 44.279 C-46.982 44.394 -45.942 44.509 -44.87 44.628 C-42.251 45.105 -40.399 45.802 -38.112 47.13 C-43.028 48.095 -47.768 48.324 -52.756 48.412 C-54.418 48.449 -56.081 48.487 -57.743 48.525 C-60.348 48.579 -62.953 48.631 -65.558 48.683 C-68.082 48.734 -70.607 48.791 -73.131 48.849 C-73.917 48.863 -74.702 48.876 -75.511 48.89 C-80.999 49.017 -80.999 49.017 -82.112 50.13 C-81.486 50.302 -80.86 50.473 -80.216 50.649 C-77.388 51.428 -74.562 52.216 -71.737 53.005 C-70.752 53.275 -69.767 53.544 -68.752 53.822 C-67.811 54.086 -66.87 54.35 -65.901 54.623 C-65.032 54.863 -64.162 55.104 -63.267 55.353 C-61.112 56.13 -61.112 56.13 -59.112 58.13 C-67.588 58.268 -75.92 57.868 -84.362 57.13 C-85.5 57.035 -86.638 56.94 -87.811 56.841 C-90.578 56.609 -93.345 56.372 -96.112 56.13 C-95.472 55.202 -94.833 54.274 -94.174 53.318 C-91.21 48.737 -90.579 45.547 -91.112 40.13 C-92.267 37.893 -93.565 35.884 -95.018 33.83 C-96.112 32.13 -96.112 32.13 -96.112 30.13 C-99.132 28.564 -102.198 27.254 -105.362 26.005 C-105.808 25.829 -105.808 25.829 -108.065 24.935 C-108.74 24.67 -109.416 24.404 -110.112 24.13 C-107.407 21.944 -105.018 20.553 -101.725 19.447 C-100.878 19.161 -100.03 18.875 -99.157 18.581 C-98.256 18.288 -97.354 17.995 -96.424 17.693 C-95.488 17.385 -94.552 17.077 -93.588 16.76 C-85.828 14.259 -78.028 12.311 -70.068 10.578 C-66.996 9.875 -63.966 9.017 -60.924 8.193 C-52.939 6.11 -44.808 4.792 -36.674 3.443 C-35.382 3.228 -34.089 3.014 -32.758 2.793 C-29.212 2.217 -25.664 1.664 -22.112 1.13 C-21.327 1.011 -20.542 0.892 -19.733 0.769 C-13.181 -0.096 -6.599 -0.021 0 0 Z " fill="#437398" transform="translate(451.11181640625,518.86962890625)"/>
<path d="M0 0 C2 3 2 3 3.375 6.5 C4.998 9.995 5.623 11.311 9 13 C12.75 13.688 12.75 13.688 16 14 C11.607 19.629 6.545 24.107 1.023 28.613 C-4.789 33.465 -9.319 39.073 -14 45 C-14.659 45.781 -15.317 46.562 -15.996 47.367 C-21.201 53.589 -25.474 60.266 -29.703 67.168 C-30.093 67.802 -30.483 68.436 -30.885 69.089 C-32 71 -32 71 -32.977 72.995 C-34.576 76.204 -35.441 77.779 -38.84 79.121 C-39.351 79.173 -39.351 79.173 -41.938 79.438 C-42.957 79.56 -43.977 79.682 -45.027 79.809 C-47.697 79.98 -50.326 80.044 -53 80 C-48.981 56.28 -27.276 31.782 -12 14 C-10.842 12.638 -9.685 11.276 -8.527 9.914 C-5.701 6.596 -2.856 3.293 0 0 Z " fill="#48799C" transform="translate(431,292)"/>
<path d="M0 0 C5.878 2.714 10.131 7.266 12.539 13.316 C13.154 19.186 13.794 25.935 10.977 31.316 C6.076 37.348 1.421 41.614 -6.555 42.566 C-12.369 42.885 -16.733 41.747 -21.461 38.316 C-27.45 32.881 -29.837 28.043 -30.898 20.004 C-30.178 13.933 -27.901 8.631 -23.418 4.379 C-16.218 -1.077 -8.971 -2.492 0 0 Z " fill="#D2E8F2" transform="translate(182.4609375,479.68359375)"/>
<path d="M0 0 C0.291 0.585 0.583 1.17 0.883 1.773 C5.688 11.35 5.688 11.35 10 13 C12.359 13.414 12.359 13.414 14.75 13.625 C15.549 13.7 16.348 13.775 17.172 13.852 C17.775 13.901 18.378 13.95 19 14 C13.444 19.741 7.542 25.228 1.25 30.152 C-1 32 -1 32 -2 34 C-2.66 34 -3.32 34 -4 34 C-4.129 34.291 -4.129 34.291 -4.781 35.762 C-6.102 38.188 -7.587 39.825 -9.5 41.812 C-15.131 47.99 -19.483 54.997 -24 62 C-24.66 62.99 -25.32 63.98 -26 65 C-28.063 65.341 -28.063 65.341 -30.57 65.293 C-31.466 65.283 -32.362 65.274 -33.285 65.264 C-34.222 65.239 -35.159 65.213 -36.125 65.188 C-36.597 65.181 -36.597 65.181 -38.988 65.146 C-41.326 65.111 -43.663 65.062 -46 65 C-45.01 60.405 -42.837 56.701 -40.562 52.625 C-40.117 51.826 -39.671 51.026 -39.211 50.203 C-30.929 35.621 -20.421 22.749 -9.152 10.371 C-6.053 6.957 -3.024 3.481 0 0 Z " fill="#46779C" transform="translate(454,304)"/>
<path d="M0 0 C2 2 2 2 3.438 4.5 C5 7 5 7 8 9 C12.173 9.232 15.94 8.984 20 8 C17.081 11.614 14.16 14.983 10.562 17.938 C6.571 21.259 3.341 25.038 0 29 C-0.407 29.463 -0.407 29.463 -2.465 31.805 C-15.613 46.841 -25.572 63.014 -34.77 80.726 C-36 83 -36 83 -38 86 C-40.602 86.512 -40.602 86.512 -43.625 86.688 C-44.628 86.753 -45.631 86.819 -46.664 86.887 C-47.435 86.924 -48.206 86.961 -49 87 C-39.219 55.404 -20.229 25.86 0 0 Z " fill="#48789B" transform="translate(402,288)"/>
<path d="M0 0 C9.072 3.992 12.64 11.557 16.473 20.25 C17.137 22.195 17.137 22.195 17.137 25.195 C16.477 25.195 15.817 25.195 15.137 25.195 C15.178 26.453 15.219 27.712 15.262 29.008 C15.376 32.486 15.196 33.106 13.137 36.195 C9.377 34.775 5.923 33.037 2.387 31.133 C-2.886 28.451 -6.979 27.391 -12.863 27.195 C-12.541 27.889 -12.219 28.582 -11.887 29.297 C-9.898 34.93 -9.808 41.725 -11.551 47.457 C-14.027 52.213 -17.838 54.985 -22.738 56.945 C-26.119 57.343 -29.461 57.252 -32.863 57.195 C-32.533 56.535 -32.203 55.875 -31.863 55.195 C-30.976 54.907 -30.09 54.618 -29.176 54.32 C-23.926 52.537 -20.243 50.387 -17.488 45.508 C-15.064 40.137 -15.014 34.744 -16.863 29.195 C-20.382 29.614 -22.92 30.224 -26.113 31.82 C-26.567 32.047 -26.567 32.047 -28.863 33.195 C-29.523 32.865 -30.183 32.535 -30.863 32.195 C-30.598 31.564 -30.332 30.932 -30.059 30.281 C-27.887 24.782 -26.57 19.773 -25.926 13.883 C-25.197 7.992 -24.383 5.069 -19.863 1.195 C-14.088 -2.415 -6.342 -1.782 0 0 Z " fill="#ACD3E7" transform="translate(240.86328125,481.8046875)"/>
<path d="M0 0 C5.23 0.299 9.199 1.777 13.863 4.078 C14.517 4.397 15.17 4.716 15.843 5.045 C18.004 6.103 20.158 7.176 22.312 8.25 C23.839 9.003 25.365 9.756 26.892 10.507 C30.175 12.127 33.455 13.753 36.732 15.384 C41.294 17.652 45.864 19.902 50.436 22.148 C54.224 24.01 58.007 25.881 61.789 27.753 C63.622 28.66 65.456 29.564 67.291 30.465 C92.925 43.075 92.925 43.075 97 51 C97.547 54.749 97.258 56.506 95.5 59.875 C92.755 62.208 90.955 62.914 87.332 62.672 C80.311 60.649 74.669 54.675 69.438 49.812 C49.169 31.158 23.473 17.146 -2 7 C-2.125 4.625 -2.125 4.625 -2 2 C-1.34 1.34 -0.68 0.68 0 0 Z " fill="#D9ECF5" transform="translate(78,512)"/>
<path d="M0 0 C6.289 3.963 10.387 9.864 12.613 16.953 C14.329 26.034 12.725 33.955 7.902 41.781 C3.678 47.395 -3.173 51.556 -10 53 C-19.484 53.896 -26.656 52.279 -34.75 47.312 C-41.208 40.675 -44.947 33.644 -45.5 24.375 C-45.341 16.382 -42.296 9.909 -37.172 3.832 C-25.735 -7.07 -13.407 -7.068 0 0 Z M-32 9 C-36.487 14.727 -38.476 19.629 -38 27 C-36.646 34.032 -33.682 38.65 -28 43 C-21.981 46.455 -16.629 46.812 -9.93 45.637 C-3.62 43.818 0.232 39.187 4 34 C6 27.999 6.202 20.483 4.129 14.477 C0.887 8.928 -3.879 5.04 -10 3 C-18.867 2.03 -25.479 2.547 -32 9 Z " fill="#183C58" transform="translate(190,476)"/>
<path d="M0 0 C0.66 0 1.32 0 2 0 C2.206 1.217 2.413 2.434 2.625 3.688 C3.824 8.393 5.843 10.383 10 13 C12.676 13.919 15.206 14.47 18 15 C15.131 17.975 12.116 20.564 8.875 23.125 C-1.853 31.87 -10.347 41.521 -18 53 C-19.971 53.341 -19.971 53.341 -22.352 53.293 C-23.202 53.283 -24.053 53.274 -24.93 53.264 C-25.819 53.239 -26.709 53.213 -27.625 53.188 C-28.522 53.174 -29.419 53.16 -30.344 53.146 C-32.563 53.111 -34.781 53.062 -37 53 C-36.077 48.655 -33.914 45.276 -31.562 41.562 C-31.117 40.855 -30.671 40.148 -30.211 39.419 C-22.017 26.615 -12.399 14.795 -1.215 4.473 C0 3 0 3 0 0 Z " fill="#46779C" transform="translate(477,316)"/>
<path d="M0 0 C2 0 2 0 3.262 1.223 C13.034 13.833 18.29 29.159 19 45 C19.076 46.182 19.152 47.364 19.23 48.582 C19.863 65.728 15.288 82.356 4.312 95.75 C-5.308 105.955 -18.36 111.337 -32.262 112.203 C-40.017 112.309 -46.655 111.518 -54 109 C-54 108.67 -54 108.34 -54 108 C-53.28 107.966 -52.561 107.931 -51.82 107.896 C-24.979 106.51 -24.979 106.51 -15 101 C-14.18 100.557 -13.36 100.113 -12.516 99.656 C-1.011 92.707 5.181 82.245 9.035 69.605 C13.837 49.348 12.621 25.006 1.688 6.875 C0 4 0 4 0 0 Z " fill="#345973" transform="translate(250,486)"/>
<path d="M0 0 C0.227 0.303 0.227 0.303 1.375 1.836 C7.943 10.583 7.943 10.583 12.043 11.414 C12.751 11.484 13.458 11.553 14.188 11.625 C15.446 11.749 16.704 11.873 18 12 C14.754 15.346 11.425 18.324 7.75 21.188 C1.694 26.081 -4.292 31.585 -8.395 38.273 C-10 40 -10 40 -12.637 40.426 C-13.643 40.388 -14.65 40.351 -15.688 40.312 C-16.748 40.278 -17.809 40.243 -18.902 40.207 C-22.641 39.957 -26.297 39.57 -30 39 C-28.502 34.669 -26.223 31.127 -23.562 27.438 C-23.125 26.828 -22.688 26.218 -22.237 25.589 C-18.359 20.29 -14.073 15.474 -9.562 10.711 C-6.271 7.229 -3.127 3.629 0 0 Z " fill="#47789B" transform="translate(500,330)"/>
<path d="M0 0 C4.841 2.331 7.703 5.141 10 10 C10.834 15.3 10.87 19.47 8.188 24.188 C3.454 26.879 -0.689 27.073 -6 26 C-10.973 23.37 -14.162 19.298 -16 14 C-16.555 9.562 -16.312 7.561 -14.125 3.625 C-10.281 -1.123 -5.771 -0.63 0 0 Z " fill="#33658A" transform="translate(463,454)"/>
<path d="M0 0 C2.457 1.33 4.312 2.91 6.09 5.059 C6.866 8.456 6.489 10.891 5.59 14.246 C1.127 18.709 -2.958 20.541 -9.223 20.621 C-14.858 20.525 -17.976 19.717 -22.41 16.246 C-24.591 13.611 -24.411 12.28 -24.348 8.809 C-23.24 4.598 -21.724 2.994 -18.41 0.246 C-13.393 -2.263 -5.252 -1.643 0 0 Z " fill="#35668B" transform="translate(367.41015625,469.75390625)"/>
<path d="M0 0 C0.66 0.99 1.32 1.98 2 3 C6.392 8.765 6.392 8.765 10.164 9.316 C10.57 9.357 10.57 9.357 12.625 9.562 C13.442 9.646 14.26 9.73 15.102 9.816 C15.728 9.877 16.355 9.938 17 10 C16.31 10.536 15.621 11.072 14.91 11.625 C11.633 14.3 8.534 17.12 5.438 20 C4.874 20.521 4.31 21.042 3.729 21.578 C3.177 22.089 2.626 22.599 2.059 23.125 C1.528 23.615 0.997 24.105 0.449 24.611 C-0.792 25.801 -1.956 27.072 -3.102 28.355 C-5.496 30.43 -6.688 30.455 -9.812 30.312 C-10.248 30.295 -10.248 30.295 -12.449 30.207 C-15.672 29.945 -18.814 29.554 -22 29 C-19.895 17.813 -7.771 7.771 0 0 Z " fill="#487798" transform="translate(522,342)"/>
<path d="M0 0 C-0.501 0.593 -1.003 1.186 -1.52 1.797 C-3 4 -3 4 -2.688 7.25 C-2.574 7.704 -2.574 7.704 -2 10 C0.31 10 2.62 10 5 10 C5.33 9.34 5.66 8.68 6 8 C6.66 8 7.32 8 8 8 C8.86 18.743 8.86 18.743 5.812 22.562 C1.965 25.897 -0.407 26.826 -5.438 27.375 C-10.402 26.852 -13.309 24.848 -16.648 21.199 C-19.138 17.148 -18.498 12.594 -18 8 C-16.722 4.771 -15.513 3.451 -12.938 1.188 C-8.646 -0.547 -4.57 -0.24 0 0 Z " fill="#1B3D56" transform="translate(179,487)"/>
<path d="M0 0 C0.33 0.165 0.33 0.165 2 1 C1.201 1.727 0.402 2.454 -0.422 3.203 C-11.749 13.552 -22.464 23.945 -32 36 C-33.415 37.71 -34.832 39.418 -36.25 41.125 C-45.993 53.044 -55.156 65.403 -64 78 C-65.65 77.34 -67.3 76.68 -69 76 C-67.55 71.735 -65.416 68.706 -62.625 65.188 C-61.717 64.036 -60.811 62.884 -59.906 61.73 C-59.668 61.428 -59.668 61.428 -58.465 59.896 C-56.976 57.969 -55.53 56.017 -54.094 54.051 C-48.358 46.209 -42.384 38.874 -35.684 31.836 C-33.459 29.485 -31.338 27.096 -29.25 24.625 C-25.819 20.676 -22.011 17.346 -18 14 C-17.022 13.169 -16.043 12.337 -15.035 11.48 C-10.174 7.372 -5.35 3.453 0 0 Z " fill="#437193" transform="translate(933,396)"/>
<path d="M0 0 C5.263 1.393 7.98 4.693 11 9 C13.891 14.781 14.091 22.035 12.383 28.242 C10.007 33.647 5.946 37.822 1 41 C-1.754 41.691 -1.754 41.691 -4 42 C-4.082 43.155 -4.165 44.31 -4.25 45.5 C-5.248 53.147 -8.844 58.29 -14.219 63.652 C-16.153 65.116 -17.63 65.589 -20 66 C-18.506 62.604 -16.452 59.813 -14.219 56.879 C-9.507 49.615 -10.061 40.349 -11 32 C-12.782 25.228 -15.86 19.226 -19 13 C-12.95 15.56 -9.331 21.044 -6.695 26.898 C-5.231 30.884 -3.982 34.869 -3 39 C2.409 35.6 4.895 30.872 7 25 C8.125 18.714 6.66 12.732 4 7 C1.812 4.062 1.812 4.062 0 2 C0 1.34 0 0.68 0 0 Z " fill="#83A4BA" transform="translate(290,509)"/>
<path d="M0 0 C4.209 1.108 5.273 2.327 7.562 5.938 C9.651 10.115 9.007 15.389 8.562 19.938 C7.3 23.137 5.712 25.363 2.562 26.938 C-0.25 27.312 -0.25 27.312 -3.438 26.938 C-6.01 24.765 -7.927 22.958 -9.438 19.938 C-9.587 17.837 -9.659 15.731 -9.688 13.625 C-9.7 13.06 -9.7 13.06 -9.766 10.199 C-9.403 6.597 -8.608 4.803 -6.438 1.938 C-3.438 -0.062 -3.438 -0.062 0 0 Z " fill="#3D6F94" transform="translate(569.4375,463.0625)"/>
<path d="M0 0 C3.249 1.415 4.694 4.076 6.59 6.938 C7.47 8.217 8.353 9.494 9.238 10.77 C9.707 11.447 10.176 12.125 10.659 12.823 C19.929 25.952 30.077 38.609 40.91 50.473 C42.401 52.111 43.875 53.765 45.332 55.434 C50.886 61.768 56.831 67.384 63.152 72.938 C58.935 72.938 56.792 70.606 53.652 68.062 C53.342 67.814 53.342 67.814 51.771 66.557 C43.205 59.639 35.231 52.391 28.152 43.938 C27.305 42.978 26.459 42.019 25.586 41.031 C18.752 33.271 12.458 25.185 6.316 16.866 C5.717 16.054 5.118 15.243 4.5 14.406 C4.216 14.021 4.216 14.021 2.778 12.07 C1.318 10.155 -0.203 8.341 -1.789 6.531 C-3.848 3.938 -3.848 3.938 -3.848 0.938 C-1.848 -0.062 -1.848 -0.062 0 0 Z " fill="#447294" transform="translate(867.84765625,535.0625)"/>
<path d="M0 0 C4.218 1.506 5.775 4.24 8 8 C9.809 13.428 9.811 18.874 7.562 24.188 C4.956 28.849 0.789 31.774 -4 34 C-5.32 34 -6.64 34 -8 34 C-7.938 35.176 -7.876 36.351 -7.812 37.562 C-7.839 42.526 -8.881 46.756 -12.395 50.477 C-16.741 54.24 -20.244 56.286 -26 56.312 C-26.846 56.329 -27.691 56.346 -28.562 56.363 C-31.453 55.932 -32.828 54.905 -35 53 C-34.203 52.902 -33.407 52.804 -32.586 52.703 C-21.331 51.115 -21.331 51.115 -17 47 C-12.24 40.398 -12.409 34.212 -13.5 26.438 C-13.583 26.035 -13.583 26.035 -14 24 C-11.5 26.312 -11.5 26.312 -9 29 C-9 29.99 -9 30.98 -9 32 C-3.49 28.924 0.654 26.514 2.551 20.152 C3.936 13.517 3.517 7.862 0 2 C0 1.34 0 0.68 0 0 Z " fill="#83A4BB" transform="translate(243,515)"/>
<path d="M0 0 C0.447 0.606 0.895 1.212 1.355 1.836 C5.023 6.663 8.044 9.476 14 11 C12.878 12.157 11.744 13.305 10.574 14.414 C9 16 9 16 7.52 17.961 C5.412 20.401 3.971 21.674 1 23 C-5.047 23.323 -11.08 22.107 -17 21 C-13.028 12.632 -6.612 6.348 0 0 Z " fill="#4B7C9E" transform="translate(542,353)"/>
<path d="M0 0 C2.823 1.255 4.463 2.284 6.312 4.75 C7.503 8.647 7.503 12.353 6.312 16.25 C3.797 19.604 1.099 20.84 -3 21.438 C-6.724 20.894 -8.329 19.595 -11 17 C-12.864 13.272 -12.554 9.06 -12 5 C-8.69 -0.015 -5.861 -0.837 0 0 Z " fill="#163E5C" transform="translate(511,426)"/>
<path d="M0 0 C2.438 1.438 2.438 1.438 4 4 C4.844 8.665 4.657 11.948 2.125 16 C-1.396 19.314 -4.109 19.404 -8.801 19.344 C-11 19 -11 19 -13.562 16.875 C-15.303 13.395 -15.767 11.836 -15 8 C-10.811 1.781 -7.724 -0.666 0 0 Z " fill="#396B8F" transform="translate(628,521)"/>
<path d="M0 0 C3.973 0.874 5.531 2.308 7.984 5.484 C10.06 9.493 9.98 13.324 9.125 17.688 C7.5 20.812 7.5 20.812 5.125 22.688 C1.182 23.443 -0.339 23.045 -3.688 20.812 C-7.072 17.524 -7.08 15.437 -7.188 10.812 C-7.225 9.763 -7.262 8.714 -7.301 7.633 C-6.634 3.022 -4.461 1.067 0 0 Z " fill="#396A8F" transform="translate(603.875,469.3125)"/>
<path d="M0 0 C2.862 1.345 3.853 2.477 6 5 C7.188 8.5 7.188 8.5 7 12 C5.188 14.938 5.188 14.938 2 17 C-2.966 17.927 -6.723 17.782 -11.062 15.125 C-13.581 12.363 -13.955 11.401 -14.375 7.625 C-14 4 -14 4 -12.062 1.562 C-7.909 -0.556 -4.571 -0.916 0 0 Z " fill="#163F5E" transform="translate(471,407)"/>
<path d="M0 0 C3.789 1.343 5.224 3.33 7.16 6.766 C7.878 9.857 7.688 11.496 7.16 14.766 C4.501 17.988 2.833 18.656 -1.277 19.328 C-5.976 18.586 -7.507 17.099 -10.84 13.766 C-12.409 10.627 -12.192 8.227 -11.84 4.766 C-8.587 -0.271 -5.619 -1.013 0 0 Z " fill="#3F7196" transform="translate(535.83984375,521.234375)"/>
<path d="M0 0 C1.758 1.164 1.758 1.164 3.758 4.164 C3.544 7.011 3.155 8.659 1.383 10.914 C-2.14 13.624 -5.904 13.391 -10.18 13.477 C-11.406 13.514 -12.631 13.551 -13.895 13.59 C-17.242 13.164 -17.242 13.164 -19.676 11.332 C-21.242 9.164 -21.242 9.164 -21.367 6.164 C-20.214 3.089 -19.185 1.522 -16.324 -0.148 C-11.285 -1.812 -4.979 -1.856 0 0 Z " fill="#164061" transform="translate(590.2421875,422.8359375)"/>
<path d="M0 0 C4.465 1.037 4.465 1.037 6.5 3.812 C7.359 8.811 7.212 13.389 4.938 17.938 C1.682 20.442 -0.403 20.884 -4.5 20.812 C-7.302 19.046 -9.015 17.782 -10.5 14.812 C-11.048 9.113 -10.11 6.247 -6.5 1.812 C-3.5 -0.188 -3.5 -0.188 0 0 Z " fill="#3C6C90" transform="translate(398.5,456.1875)"/>
<path d="M0 0 C0.66 0.33 1.32 0.66 2 1 C1.094 1.883 0.188 2.766 -0.746 3.676 C-7.986 10.784 -14.776 17.97 -21 26 C-22.126 27.433 -23.252 28.865 -24.379 30.297 C-30.749 38.416 -37.029 46.581 -43 55 C-44.32 54.34 -45.64 53.68 -47 53 C-46.487 48.526 -44.909 46.259 -42 42.875 C-37.012 37.016 -37.012 37.016 -35.035 34.473 C-25.105 21.711 -13.153 9.452 0 0 Z " fill="#447397" transform="translate(921,427)"/>
<path d="M0 0 C-0.825 0.45 -1.65 0.9 -2.5 1.363 C-18.886 10.434 -34.944 21.197 -48.438 34.25 C-51.397 36.941 -51.397 36.941 -54.035 37.199 C-56 36.938 -56 36.938 -59 36 C-59 35.34 -59 34.68 -59 34 C-56.074 31.232 -52.874 28.798 -49.698 26.324 C-48.575 25.449 -47.458 24.568 -46.345 23.68 C-38.222 17.226 -10.147 -5.073 0 0 Z " fill="#457396" transform="translate(655,352)"/>
<path d="M0 0 C4.261 1.514 6.146 4.653 8.562 8.25 C9.449 9.528 10.339 10.804 11.23 12.078 C11.459 12.405 11.459 12.405 12.615 14.057 C22.2 27.504 33.006 40.641 45 52 C41.541 52 41.162 51.594 38.672 49.402 C38.036 48.847 37.401 48.292 36.746 47.721 C36.087 47.132 35.429 46.544 34.75 45.938 C34.107 45.376 33.464 44.815 32.801 44.236 C22.995 35.604 14.517 26.144 6.639 15.744 C4.562 13.004 2.441 10.341 0.188 7.746 C-2 5 -2 5 -1.875 2.688 C-1 1 -1 1 0 0 Z " fill="#427295" transform="translate(876,527)"/>
<path d="M0 0 C2.438 1.562 2.438 1.562 4 4 C4.715 9.007 4.811 10.854 1.875 15 C-1 17 -1 17 -3.938 17.562 C-8.018 16.813 -11.058 14.942 -14 12 C-14.508 6.837 -14.508 6.837 -14 4 C-9.368 -0.754 -6.419 -1.439 0 0 Z " fill="#164262" transform="translate(338,425)"/>
<path d="M0 0 C2.762 -0.297 2.762 -0.297 6 0 C8.02 1.984 8.02 1.984 9.812 4.75 C10.493 5.757 11.174 6.764 11.875 7.801 C12.576 8.857 13.277 9.912 14 11 C22.904 23.488 33.093 34.261 44 45 C45.668 46.665 47.335 48.332 49 50 C39.264 45.593 30.682 37.252 23 30 C22.386 29.428 21.773 28.855 21.141 28.266 C13.137 20.556 5.78 11.496 0 2 C0 1.34 0 0.68 0 0 Z " fill="#447294" transform="translate(342,667)"/>
<path d="M0 0 C3.188 1.812 3.188 1.812 6 4 C6.598 4.433 7.196 4.866 7.812 5.312 C9.768 8.092 9.881 10.666 10 14 C9 15.938 9 15.938 7 17 C2.531 17.688 -0.157 17.213 -3.812 14.688 C-6.192 12.875 -7.284 11.574 -9 9 C-9.325 5.88 -9.512 3.853 -7.875 1.125 C-5.048 -0.571 -3.25 -0.446 0 0 Z " fill="#17405F" transform="translate(622,436)"/>
<path d="M0 0 C3.186 2.778 3.911 4.369 4.5 8.562 C4 12 4 12 2.438 14.438 C-0.957 16.613 -3.037 16.556 -7 16 C-10.791 13.94 -11.783 12.702 -13.062 8.562 C-12.987 4.267 -12.035 2.948 -9 0 C-5.778 -1.611 -3.424 -0.827 0 0 Z " fill="#163D5B" transform="translate(397,410)"/>
<path d="M0 0 C0 0.66 0 1.32 0 2 C-1.563 2.986 -3.181 3.884 -4.812 4.75 C-10.819 8.143 -16.334 12.019 -21.875 16.125 C-22.683 16.723 -23.491 17.321 -24.323 17.937 C-27.765 20.506 -31.123 23.082 -34.328 25.941 C-37 28 -37 28 -40.875 27.812 C-41.906 27.544 -42.938 27.276 -44 27 C-44 26.34 -44 25.68 -44 25 C-34.427 15.715 -13.819 0 0 0 Z " fill="#467599" transform="translate(659,366)"/>
<path d="M0 0 C2 0 2 0 3.262 1.223 C6.736 5.706 9.338 10.39 11.75 15.5 C12.044 16.116 12.337 16.733 12.639 17.367 C15.835 24.369 17.644 31.273 17 39 C15.625 41.5 15.625 41.5 14 43 C13.34 43 12.68 43 12 43 C11.841 41.863 11.683 40.726 11.52 39.555 C9.828 28.111 7.703 16.965 1.688 6.875 C0 4 0 4 0 0 Z " fill="#274C66" transform="translate(250,486)"/>
<path d="M0 0 C2.942 2.003 4.679 3.426 5.41 7.008 C5.535 9.956 5.332 12.375 3.938 15 C0.821 16.609 -1.563 16.422 -5 16 C-7.365 14.133 -8.66 12.679 -10 10 C-10.449 3.82 -10.449 3.82 -8.938 1.062 C-5.785 -0.666 -3.522 -0.486 0 0 Z " fill="#153C59" transform="translate(662,445)"/>
<path d="M0 0 C2.742 -0.355 2.742 -0.355 6 0 C8.133 2.387 8.133 2.387 10.125 5.688 C17.458 17.168 27.114 26.365 37.188 35.441 C39.528 37.571 41.787 39.739 44 42 C27.787 36.476 8.725 16.217 0 2 C0 1.34 0 0.68 0 0 Z " fill="#437395" transform="translate(357,669)"/>
<path d="M0 0 C2.731 0.979 4.566 2.429 6.855 4.215 C17.161 11.896 28.528 18.344 40.168 23.777 C38.168 24.777 38.168 24.777 34.816 23.844 C33.388 23.354 31.964 22.852 30.543 22.34 C29.787 22.069 29.032 21.798 28.254 21.519 C16.36 17.127 5.243 11.528 -4.832 3.777 C-4.502 2.787 -4.172 1.797 -3.832 0.777 C-1.832 -0.223 -1.832 -0.223 0 0 Z " fill="#436D8C" transform="translate(644.83203125,625.22265625)"/>
<path d="M0 0 C0.588 0.144 1.176 0.289 1.781 0.438 C9.223 1.977 16.48 2.222 24.062 2.25 C25.067 2.259 26.071 2.268 27.105 2.277 C33.93 2.251 40.332 1.439 47 0 C47.165 0.33 47.165 0.33 48 2 C48.99 2.66 49.98 3.32 51 4 C36.503 9.138 18.151 9.321 4.02 3.133 C2.652 2.476 1.319 1.749 0 1 C0 0.67 0 0.34 0 0 Z " fill="#2A4B62" transform="translate(221,607)"/>
<path d="M0 0 C0.66 0 1.32 0 2 0 C6.568 4.58 8.447 9.196 8.625 15.625 C8.335 21.27 7.556 24.602 4 29 C-2.149 33.868 -6.455 34.126 -14 34 C-13.67 33.34 -13.34 32.68 -13 32 C-12.113 31.711 -11.226 31.423 -10.312 31.125 C-5.062 29.342 -1.38 27.192 1.375 22.312 C4.549 15.141 3.294 8.795 0.656 1.652 C0.44 1.107 0.223 0.562 0 0 Z " fill="#85A7BD" transform="translate(222,505)"/>
<path d="M0 0 C0.909 0.519 1.818 1.039 2.754 1.574 C16.866 9.47 30.177 13.763 46.438 14.562 C46.851 14.584 46.851 14.584 48.943 14.693 C50.962 14.798 52.981 14.9 55 15 C55 15.33 55 15.66 55 16 C50.71 16 46.42 16 42 16 C42 16.66 42 17.32 42 18 C36.238 19.017 31.914 18.937 26.312 17.062 C25.97 16.952 25.97 16.952 24.235 16.391 C15.291 13.31 7.101 8.244 0 2 C0 1.34 0 0.68 0 0 Z " fill="#264862" transform="translate(198,608)"/>
<path d="M0 0 C-0.955 0.617 -1.91 1.235 -2.895 1.871 C-4.202 2.725 -5.507 3.581 -6.812 4.438 C-7.492 4.883 -8.172 5.329 -8.873 5.788 C-14.176 9.322 -18.926 13.177 -23.633 17.48 C-26 19 -26 19 -28.68 18.801 C-31 18 -31 18 -33 17 C-33 16.34 -33 15.68 -33 15 C-30.594 13.294 -28.199 11.724 -25.688 10.188 C-24.962 9.739 -24.237 9.29 -23.49 8.828 C-5.805 -1.935 -5.805 -1.935 0 0 Z " fill="#45779B" transform="translate(667,382)"/>
<path d="M0 0 C2.438 0.5 2.438 0.5 4.25 1.5 C6.148 4.697 6.082 7.941 5.438 11.5 C3.75 14 3.75 14 1.438 15.5 C-1.438 15.991 -2.857 15.914 -5.375 14.438 C-7.265 11.353 -6.989 9.035 -6.562 5.5 C-4.683 2.229 -3.757 0.733 0 0 Z " fill="#3C6D90" transform="translate(659.5625,522.5)"/>
<path d="M0 0 C1.938 1.062 1.938 1.062 3 3 C3.362 6.383 3.584 8.868 2 11.938 C-1.395 13.741 -4.192 13.363 -8 13 C-10.463 9.305 -10.39 7.367 -10 3 C-7.778 -1.052 -4.201 -0.45 0 0 Z " fill="#3C6F92" transform="translate(580,521)"/>
<path d="M0 0 C1 3 1 3 0.535 5.43 C-1.659 9.103 -4.806 10.395 -8.562 12.125 C-9.29 12.471 -10.018 12.817 -10.769 13.174 C-19.985 17.491 -27.763 19.498 -38 20 C-37 18 -37 18 -33.457 16.773 C-31.909 16.305 -30.361 15.839 -28.812 15.375 C-18.079 11.989 -8.709 7.244 0 0 Z " fill="#2B485A" transform="translate(289,579)"/>
<path d="M0 0 C1.102 4.409 1.077 8.484 1 13 C0.67 11.68 0.34 10.36 0 9 C-5.61 8.67 -11.22 8.34 -17 8 C-18 3 -18 3 -17 1 C-11.49 -0.278 -5.623 -0.102 0 0 Z " fill="#A2CBE1" transform="translate(875,496)"/>
<path d="M0 0 C3.062 0.562 3.062 0.562 5.5 2.625 C7.524 6.429 7.148 8.455 6.062 12.562 C5.403 13.223 4.742 13.882 4.062 14.562 C1.024 14.369 -1.182 14.057 -3.75 12.375 C-5.47 9.75 -5.81 7.685 -5.938 4.562 C-4.451 1.239 -3.589 0.687 0 0 Z " fill="#427396" transform="translate(638.9375,476.4375)"/>
<path d="M0 0 C0.66 0.33 1.32 0.66 2 1 C1.417 1.438 0.835 1.877 0.234 2.328 C-9.376 9.762 -18.136 17.933 -25 28 C-25.66 28 -26.32 28 -27 28 C-27.812 25.312 -27.812 25.312 -28 22 C-25.828 19.598 -25.828 19.598 -23 17 C-22.184 16.198 -21.368 15.396 -20.527 14.57 C-14.308 8.698 -7.874 3.501 0 0 Z " fill="#426D8F" transform="translate(909,464)"/>
<path d="M0 0 C0.99 0 1.98 0 3 0 C3.206 1.299 3.413 2.599 3.625 3.938 C4.822 9.482 7.632 13.52 11 18 C4.608 17.276 -1.68 16.197 -8 15 C-6.72 11.263 -5.326 8.996 -2.438 6.312 C0.916 3.168 0.916 3.168 2 1 C1.34 0.67 0.68 0.34 0 0 Z " fill="#4A7290" transform="translate(558,363)"/>
<path d="M0 0 C2.375 2.188 2.375 2.188 4 5 C3.931 7.878 3.344 9.427 1.875 11.875 C0 13 0 13 -3.562 12.875 C-7 12 -7 12 -9 9 C-8.812 5.438 -8.812 5.438 -8 2 C-4.758 -0.161 -3.763 -0.642 0 0 Z " fill="#174263" transform="translate(726,468)"/>
<path d="M0 0 C-0.625 2.438 -0.625 2.438 -2 5 C-12.372 7.506 -23.012 6.424 -33 3 C-33 2.67 -33 2.34 -33 2 C-32.228 1.945 -31.456 1.889 -30.661 1.832 C-27.169 1.58 -23.678 1.321 -20.188 1.062 C-19.58 1.019 -19.58 1.019 -16.506 0.799 C-15.342 0.712 -14.179 0.625 -12.98 0.535 C-12.444 0.496 -12.444 0.496 -9.727 0.297 C-1.819 -0.564 -1.819 -0.564 0 0 Z " fill="#3C5E73" transform="translate(229,592)"/>
<path d="M0 0 C3.959 1.483 7.243 4.268 10.625 6.75 C16.242 10.824 21.958 14.575 28 18 C23.857 19.381 21.35 17.767 17.562 16.062 C16.855 15.75 16.148 15.437 15.42 15.115 C8.788 12.084 2.895 8.298 -3 4 C-2.67 3.01 -2.34 2.02 -2 1 C-1.34 0.67 -0.68 0.34 0 0 Z " fill="#487CA2" transform="translate(660,617)"/>
<path d="M0 0 C3.669 1.223 4.444 2.572 6.75 5.625 C12.461 12.951 18.952 18.977 26 25 C18.428 25 11.575 17.006 6.359 12.148 C3.985 9.986 1.527 7.981 -1 6 C-0.67 4.02 -0.34 2.04 0 0 Z " fill="#416E8E" transform="translate(882,517)"/>
<path d="M0 0 C1.875 1.125 1.875 1.125 3 3 C3.398 6.182 3.552 8.128 1.812 10.875 C-0.698 12.433 -2.093 12.496 -5 12 C-7.774 9.976 -8.855 8.848 -9.438 5.438 C-9 3 -9 3 -7.875 1.188 C-5.128 -0.552 -3.182 -0.398 0 0 Z " fill="#174160" transform="translate(434,420)"/>
<path d="M0 0 C0.33 0 0.66 0 1 0 C1 1.65 1 3.3 1 5 C1.99 5.33 2.98 5.66 4 6 C4.578 12.937 2.77 17.665 -1.684 23.027 C-4.651 26.148 -6.651 28.247 -11 29 C-9.794 26.258 -8.428 24.267 -6.562 21.875 C-1.903 15.457 -0.717 7.74 0 0 Z " fill="#7197B2" transform="translate(281,546)"/>
<path d="M0 0 C-0.33 0.495 -0.33 0.495 -2 3 C-1.34 3.66 -0.68 4.32 0 5 C-9.57 6.65 -19.14 8.3 -29 10 C-25.656 6.656 -22.527 5.476 -18.188 3.938 C-17.488 3.682 -16.789 3.426 -16.068 3.162 C-14.05 2.428 -12.026 1.712 -10 1 C-8.89 0.602 -7.78 0.203 -6.637 -0.207 C-3.887 -1.034 -2.642 -1.016 0 0 Z " fill="#154265" transform="translate(389,535)"/>
<path d="M0 0 C3.062 0.312 3.062 0.312 5 1.375 C6.729 4.528 5.922 6.938 5.062 10.312 C2.062 12.312 2.062 12.312 -0.5 12.062 C-2.938 11.312 -2.938 11.312 -4.938 9.312 C-5.188 5.812 -5.188 5.812 -4.938 2.312 C-2.938 0.312 -2.938 0.312 0 0 Z " fill="#3F6F92" transform="translate(698.9375,522.6875)"/>
<path d="M0 0 C6.462 0.462 6.462 0.462 9 3 C8.75 6.562 8.75 6.562 8 10 C5.171 11.414 3.126 11.319 0 11 C-1.938 9.312 -1.938 9.312 -3 7 C-2.759 3.63 -2.412 2.412 0 0 Z " fill="#3F7195" transform="translate(421,456)"/>
<path d="M0 0 C2.438 0.75 2.438 0.75 4.438 2.75 C3.976 9.212 3.976 9.212 1.438 11.75 C-1.562 11.562 -1.562 11.562 -4.562 10.75 C-6.562 7.75 -6.562 7.75 -6.375 4.688 C-5.321 0.877 -4.041 -0.394 0 0 Z " fill="#3C6C8F" transform="translate(673.5625,484.25)"/>
<path d="M0 0 C2.75 -0.375 2.75 -0.375 6 0 C7.875 2.5 7.875 2.5 8.82 4.16 C13.058 10.77 20.071 15.954 26 21 C25.34 21.33 24.68 21.66 24 22 C16.776 17.22 10.282 11.963 4 6 C3.245 5.292 2.489 4.585 1.711 3.855 C0 2 0 2 0 0 Z " fill="#3E6A8A" transform="translate(373,672)"/>
<path d="M0 0 C-0.785 0.508 -1.57 1.016 -2.379 1.539 C-11.99 7.836 -11.99 7.836 -15.812 11.562 C-18.59 14.101 -18.801 14.006 -22.938 13.875 C-23.948 13.586 -24.959 13.298 -26 13 C-26 12.34 -26 11.68 -26 11 C-7.402 -2.467 -7.402 -2.467 0 0 Z " fill="#436D8E" transform="translate(680,394)"/>
<path d="M0 0 C3.062 0.312 3.062 0.312 4.938 1.5 C6.485 3.993 6.567 5.432 6.062 8.312 C4.375 10.188 4.375 10.188 2.062 11.312 C-1.308 11.072 -2.525 10.725 -4.938 8.312 C-5.188 5.312 -5.188 5.312 -4.938 2.312 C-2.938 0.312 -2.938 0.312 0 0 Z " fill="#133B59" transform="translate(541.9375,423.6875)"/>
<path d="M0 0 C4.624 1.435 8.968 3.255 13.312 5.375 C13.629 5.521 13.629 5.521 15.229 6.258 C19.788 8.486 19.788 8.486 20.918 11.227 C20.945 11.812 20.972 12.397 21 13 C15.61 12.471 11.758 10.537 7.125 7.938 C6.437 7.56 5.748 7.183 5.039 6.795 C3.355 5.871 1.677 4.937 0 4 C0 2.68 0 1.36 0 0 Z " fill="#1D3B4F" transform="translate(133,533)"/>
<path d="M0 0 C-1.998 7.325 -8.683 12.327 -15 16 C-15.66 16 -16.32 16 -17 16 C-15.727 11.22 -14.07 8.59 -10.5 5.188 C-9.706 4.418 -8.912 3.648 -8.094 2.855 C-4.988 0.103 -4.342 0 0 0 Z " fill="#18394D" transform="translate(305,569)"/>
<path d="M0 0 C3.875 1.875 3.875 1.875 5 3 C5.125 6.5 5.125 6.5 5 10 C4 11 4 11 0.562 11.25 C-0.613 11.168 -1.789 11.085 -3 11 C-5 8 -5 8 -4.625 5.312 C-4.419 4.549 -4.213 3.786 -4 3 C-2.68 2.67 -1.36 2.34 0 2 C0 1.34 0 0.68 0 0 Z " fill="#EFF5F7" transform="translate(180,487)"/>
<path d="M0 0 C0.33 0.66 0.66 1.32 1 2 C-0.097 4.967 -1.698 7.713 -3.188 10.5 C-3.588 11.285 -3.988 12.07 -4.4 12.879 C-4.798 13.63 -5.196 14.382 -5.605 15.156 C-5.968 15.845 -6.33 16.534 -6.704 17.244 C-8.233 19.315 -9.643 20.032 -12 21 C-12.065 16.927 -12.024 13.366 -9.516 10.02 C-7.724 8.286 -5.871 6.647 -4 5 C-2.637 3.357 -1.289 1.701 0 0 Z M-13 13 C-11 14 -11 14 -11 14 Z " fill="#CAE6F1" transform="translate(307,568)"/>
<path d="M0 0 C5.151 1.364 8.35 4.493 11 9 C11.737 12.015 11.986 14.902 12 18 C11.34 17.01 10.68 16.02 10 15 C9.67 16.65 9.34 18.3 9 20 C7.533 17.235 6.508 14.561 5.625 11.562 C4.379 7.677 2.713 5.087 0 2 C0 1.34 0 0.68 0 0 Z " fill="#739DB5" transform="translate(290,509)"/>
<path d="M0 0 C-2.774 2.101 -5.573 4.149 -8.438 6.125 C-9.179 6.643 -9.92 7.161 -10.684 7.695 C-13.194 9.109 -15.142 9.693 -18 10 C-18.99 9.67 -19.98 9.34 -21 9 C-20 6 -20 6 -17.383 4.648 C-16.845 4.438 -16.845 4.438 -14.125 3.375 C-13.055 2.95 -11.985 2.524 -10.883 2.086 C-7.003 0.624 -4.138 -0.112 0 0 Z " fill="#447398" transform="translate(695,406)"/>
<path d="M0 0 C2.57 1.742 2.57 1.742 5.125 3.875 C5.973 4.574 6.821 5.272 7.695 5.992 C9.545 7.604 11.3 9.234 13 11 C8.847 10.379 5.602 8.973 1.875 7.062 C0.841 6.538 -0.193 6.013 -1.258 5.473 C-4 4 -4 4 -7 2 C-7 1.34 -7 0.68 -7 0 C-4.225 -1.387 -2.952 -0.881 0 0 Z " fill="#436A89" transform="translate(680,610)"/>
<path d="M0 0 C0.33 0 0.66 0 1 0 C1.761 6.412 2.127 12.797 2.188 19.25 C2.202 20.555 2.216 21.859 2.23 23.203 C1.989 27.179 1.233 30.238 0 34 C-0.33 34 -0.66 34 -1 34 C-1 26.41 -1 18.82 -1 11 C-2.32 10.34 -3.64 9.68 -5 9 C-4.34 9 -3.68 9 -3 9 C-2.01 6.03 -1.02 3.06 0 0 Z " fill="#43657B" transform="translate(267,520)"/>
<path d="M0 0 C8.58 1.32 17.16 2.64 26 4 C25.67 4.66 25.34 5.32 25 6 C16.328 6.496 8.827 6.093 1 2 C0.67 1.34 0.34 0.68 0 0 Z " fill="#264659" transform="translate(221,607)"/>
<path d="M0 0 C-1.575 3.664 -3.842 6.299 -6.5 9.25 C-7.294 10.142 -8.088 11.034 -8.906 11.953 C-11 14 -11 14 -13 14 C-13.33 12.68 -13.66 11.36 -14 10 C-12.565 8.706 -11.127 7.415 -9.688 6.125 C-8.887 5.406 -8.086 4.686 -7.262 3.945 C-2.675 0 -2.675 0 0 0 Z " fill="#1B425D" transform="translate(433,289)"/>
<path d="M0 0 C0.784 0.041 1.567 0.082 2.375 0.125 C3 2.5 3 2.5 3.375 5.125 C1.375 7.125 1.375 7.125 -1.25 7.25 C-2.034 7.209 -2.817 7.168 -3.625 7.125 C-4.25 4.75 -4.25 4.75 -4.625 2.125 C-2.625 0.125 -2.625 0.125 0 0 Z " fill="#133E60" transform="translate(693.625,458.875)"/>
<path d="M0 0 C4.62 0 9.24 0 14 0 C14.33 0.66 14.66 1.32 15 2 C17.285 2.414 17.285 2.414 20.062 2.625 C20.522 2.662 20.522 2.662 22.848 2.852 C23.558 2.901 24.268 2.95 25 3 C25 3.33 25 3.66 25 4 C16.115 4.35 8.442 3.895 0 1 C0 0.67 0 0.34 0 0 Z " fill="#5A7584" transform="translate(196,594)"/>
<path d="M0 0 C4.778 1.229 8.901 4.335 13 7 C9.37 8.325 7.377 7.667 3.875 6.188 C3.441 6.009 3.441 6.009 1.242 5.105 C-1 4 -1 4 -3 2 C-2.01 1.34 -1.02 0.68 0 0 Z " fill="#436E8D" transform="translate(693,599)"/>
<path d="M0 0 C-2.554 2.827 -4.163 4.574 -8 5 C-10.673 5.067 -13.325 5.045 -16 5 C-15 3 -15 3 -12.188 2 C-11.136 1.67 -10.084 1.34 -9 1 C-8.319 0.608 -7.639 0.216 -6.938 -0.188 C-4.333 -1.28 -2.667 -0.741 0 0 Z " fill="#7D9FB3" transform="translate(224,534)"/>
<path d="M0 0 C1.002 2.609 1.122 3.695 0.066 6.332 C-3.561 12.315 -7.444 16.741 -13 21 C-13.33 20.01 -13.66 19.02 -14 18 C-13.216 17.587 -12.433 17.175 -11.625 16.75 C-8.941 14.961 -8.119 13.95 -7 11 C-6.34 11 -5.68 11 -5 11 C-3.134 7.412 -1.575 3.722 0 0 Z " fill="#47708E" transform="translate(212,506)"/>
<path d="M0 0 C0.66 0.33 1.32 0.66 2 1 C-0.249 2.293 -2.499 3.584 -4.75 4.875 C-5.384 5.24 -6.018 5.605 -6.672 5.98 C-9.743 7.74 -12.809 9.469 -16 11 C-16.33 10.34 -16.66 9.68 -17 9 C-14.312 5.707 -10.758 4.351 -6.938 2.75 C-6.3 2.469 -5.663 2.188 -5.006 1.898 C-3.364 1.199 -1.683 0.592 0 0 Z " fill="#436988" transform="translate(653,351)"/>
<path d="M0 0 C0 0.66 0 1.32 0 2 C-5.527 2.942 -10.838 3.121 -16.438 3.062 C-17.264 3.058 -18.091 3.053 -18.943 3.049 C-20.962 3.037 -22.981 3.019 -25 3 C-25 2.67 -25 2.34 -25 2 C-16.611 0.747 -8.503 -0.36 0 0 Z " fill="#9EC0D7" transform="translate(241,627)"/>
<path d="M0 0 C3.478 1.516 5.956 3.577 8.75 6.125 C9.15 6.487 9.15 6.487 11.172 8.32 C11.474 8.597 11.474 8.597 13 10 C12.67 10.165 12.67 10.165 11 11 C9.37 9.903 7.746 8.797 6.125 7.688 C5.22 7.073 4.315 6.458 3.383 5.824 C1 4 1 4 -1 1 C-0.67 0.67 -0.34 0.34 0 0 Z " fill="#467598" transform="translate(386,683)"/>
<path d="M0 0 C2.486 1.259 4.963 2.532 7.438 3.812 C8.145 4.169 8.852 4.525 9.58 4.893 C14.887 7.66 14.887 7.66 16 11 C11.495 10.465 8.805 8.741 5.188 6.062 C4.212 5.352 3.236 4.642 2.23 3.91 C1.494 3.28 0.758 2.649 0 2 C0 1.34 0 0.68 0 0 Z " fill="#173B53" transform="translate(198,608)"/>
<path d="M0 0 C0.66 0 1.32 0 2 0 C1.67 0.99 1.34 1.98 1 3 C0.34 3 -0.32 3 -1 3 C-1.092 3.593 -1.183 4.186 -1.277 4.797 C-2.172 7.525 -3.339 8.471 -5.562 10.25 C-6.203 10.771 -6.844 11.292 -7.504 11.828 C-7.998 12.215 -8.491 12.602 -9 13 C-9 9.261 -8.095 8.634 -5.625 5.938 C-4.999 5.245 -4.372 4.553 -3.727 3.84 C-2.506 2.539 -1.261 1.261 0 0 Z " fill="#263F52" transform="translate(892,416)"/>
<path d="M0 0 C5.28 0 10.56 0 16 0 C16 0.33 16 0.66 16 1 C14.742 1.103 13.484 1.206 12.188 1.312 C9.395 1.649 8.256 1.8 6 3.562 C5.67 4.037 5.34 4.511 5 5 C4.175 4.67 4.175 4.67 0 3 C0 2.01 0 1.02 0 0 Z " fill="#224660" transform="translate(351,575)"/>
<path d="M0 0 C3.478 1.516 5.956 3.577 8.75 6.125 C9.15 6.487 9.15 6.487 11.172 8.32 C11.474 8.597 11.474 8.597 13 10 C9.436 10 8.347 9.157 5.438 7.188 C5.045 6.926 5.045 6.926 3.059 5.605 C1 4 1 4 -1 1 C-0.67 0.67 -0.34 0.34 0 0 Z " fill="#487497" transform="translate(895,532)"/>
<path d="M0 0 C1.32 0.33 2.64 0.66 4 1 C1.69 4.63 -0.62 8.26 -3 12 C-3.66 11.67 -4.32 11.34 -5 11 C-4.488 7.215 -3.792 5.559 -1 3 C-0.67 2.01 -0.34 1.02 0 0 Z " fill="#174362" transform="translate(389,300)"/>
<path d="M0 0 C-1.498 3.375 -3.446 5.915 -5.875 8.688 C-6.553 9.475 -7.231 10.263 -7.93 11.074 C-10.041 13.038 -11.186 13.628 -14 14 C-12.577 12.34 -11.153 10.68 -9.727 9.023 C-8.584 7.685 -7.454 6.336 -6.336 4.977 C-6.074 4.661 -6.074 4.661 -4.75 3.062 C-4.27 2.476 -3.791 1.889 -3.297 1.285 C-2 0 -2 0 0 0 Z " fill="#2F526A" transform="translate(255,571)"/>
<path d="M0 0 C4.301 1.912 6.199 4.266 9 8 C9 8.66 9 9.32 9 10 C8.34 10 7.68 10 7 10 C7.33 11.32 7.66 12.64 8 14 C4.835 12.417 4.289 9.603 2.875 6.438 C2.336 5.24 1.797 4.042 1.242 2.809 C0.832 1.882 0.422 0.955 0 0 Z " fill="#8BA3B1" transform="translate(271,522)"/>
<path d="M0 0 C0 0.99 0 1.98 0 3 C-2.957 4.478 -5.742 4.06 -9 4 C-8.688 2.062 -8.688 2.062 -8 0 C-4.71 -1.097 -3.287 -0.8 0 0 Z " fill="#17364C" transform="translate(277,606)"/>
<path d="M0 0 C0.99 0.33 1.98 0.66 3 1 C-0.515 6.044 -5.117 9.38 -10 13 C-10.66 12.67 -11.32 12.34 -12 12 C-8.04 8.04 -4.08 4.08 0 0 Z " fill="#1B3447" transform="translate(905,403)"/>
<path d="M0 0 C0.99 0.33 1.98 0.66 3 1 C1.497 5.208 -1.233 6.803 -5 9 C-5.66 9 -6.32 9 -7 9 C-5.661 4.617 -3.878 2.459 0 0 Z " fill="#1C3C51" transform="translate(295,576)"/>
<path d="M0 0 C0.33 0.66 0.66 1.32 1 2 C-0.582 2.082 -2.166 2.139 -3.75 2.188 C-4.191 2.205 -4.191 2.205 -6.422 2.293 C-9.447 1.949 -10.756 0.998 -13 -1 C-11.586 -1.224 -10.168 -1.428 -8.75 -1.625 C-8.356 -1.683 -8.356 -1.683 -6.359 -1.977 C-3.639 -2.004 -2.265 -1.473 0 0 Z " fill="#90A9BA" transform="translate(221,569)"/>
<path d="M0 0 C9.57 0 19.14 0 29 0 C29 0.33 29 0.66 29 1 C20.75 1 12.5 1 4 1 C4 1.66 4 2.32 4 3 C2.68 2.34 1.36 1.68 0 1 C0 0.67 0 0.34 0 0 Z " fill="#E9F9FC" transform="translate(397,671)"/>
<path d="M0 0 C0.33 0 0.66 0 1 0 C0.688 3.375 0.688 3.375 0 7 C-3 9 -3 9 -5.562 8.75 C-8 8 -8 8 -10 6 C-10 5.01 -10 4.02 -10 3 C-9.34 3 -8.68 3 -8 3 C-8 3.66 -8 4.32 -8 5 C-5 6 -5 6 -2.875 5.312 C-1 4 -1 4 -0.25 1.875 C-0.168 1.256 -0.085 0.638 0 0 Z " fill="#597E95" transform="translate(704,526)"/>
<path d="M0 0 C0.66 0.33 1.32 0.66 2 1 C0.922 2.275 -0.163 3.545 -1.25 4.812 C-1.853 5.52 -2.457 6.228 -3.078 6.957 C-4.924 8.919 -6.799 10.457 -9 12 C-9.33 11.01 -9.66 10.02 -10 9 C-6.7 6.03 -3.4 3.06 0 0 Z " fill="#243E50" transform="translate(79,497)"/>
<path d="M0 0 C0.66 1.32 1.32 2.64 2 4 C-2.431 9.785 -2.431 9.785 -5.312 10.875 C-5.869 10.916 -6.426 10.957 -7 11 C-5.221 6.956 -2.605 3.539 0 0 Z " fill="#849EAE" transform="translate(277,564)"/>
<path d="M0 0 C2.31 0.33 4.62 0.66 7 1 C7.33 1.99 7.66 2.98 8 4 C8.763 4.144 9.526 4.289 10.312 4.438 C13 5 13 5 16 6 C16 6.66 16 7.32 16 8 C11.857 7.402 8.818 5.993 5.188 3.938 C4.212 3.39 3.236 2.842 2.23 2.277 C1.494 1.856 0.758 1.434 0 1 C0 0.67 0 0.34 0 0 Z " fill="#1D3848" transform="translate(119,601)"/>
<path d="M0 0 C4.949 -0.406 8.489 -0.256 13 2 C13 2.33 13 2.66 13 3 C8.05 3 3.1 3 -2 3 C-1.34 2.01 -0.68 1.02 0 0 Z " fill="#294A5F" transform="translate(210,594)"/>
<path d="M0 0 C4.62 0 9.24 0 14 0 C10.715 2.19 9.169 2.353 5.312 2.625 C4.816 2.662 4.816 2.662 2.301 2.852 C1.921 2.876 1.921 2.876 0 3 C0 2.01 0 1.02 0 0 Z " fill="#B9D4DC" transform="translate(742,513)"/>
<path d="M0 0 C4.93 2.008 8.094 5.641 11 10 C8 10 8 10 6.395 8.758 C5.872 8.219 5.35 7.68 4.812 7.125 C4.283 6.591 3.753 6.058 3.207 5.508 C2 4 2 4 2 2 C1.34 2 0.68 2 0 2 C0 1.34 0 0.68 0 0 Z " fill="#344B5B" transform="translate(351,695)"/>
<path d="M0 0 C0.66 0.66 1.32 1.32 2 2 C4.828 3.063 7.69 3.978 10.566 4.902 C11.369 5.265 12.173 5.627 13 6 C13.33 6.99 13.66 7.98 14 9 C8.551 7.279 3.288 5.153 -2 3 C-1.34 2.01 -0.68 1.02 0 0 Z " fill="#507C98" transform="translate(81,509)"/>
<path d="M0 0 C1.336 0.808 2.669 1.622 4 2.438 C4.742 2.89 5.485 3.342 6.25 3.809 C6.827 4.202 7.405 4.595 8 5 C8 5.33 8 5.66 8 6 C0.375 5.125 0.375 5.125 -3 4 C-3 3.34 -3 2.68 -3 2 C-2.01 1.34 -1.02 0.68 0 0 Z " fill="#436D8D" transform="translate(711,588)"/>
<path d="M0 0 C0.66 0.33 1.32 0.66 2 1 C0.264 4.058 -1.385 6.634 -4 9 C-4.99 8.67 -5.98 8.34 -7 8 C-4.69 5.36 -2.38 2.72 0 0 Z " fill="#2A4659" transform="translate(385,302)"/>
<path d="M0 0 C5.114 1.068 10.072 2.231 15 4 C14.67 4.66 14.34 5.32 14 6 C12.229 5.522 10.458 5.042 8.688 4.562 C7.701 4.296 6.715 4.029 5.699 3.754 C3.785 3.219 1.886 2.629 0 2 C0 1.34 0 0.68 0 0 Z " fill="#2E4455" transform="translate(180,627)"/>
<path d="M0 0 C0.66 0.33 1.32 0.66 2 1 C0.354 6.685 -2.29 11.767 -5 17 C-6 14 -6 14 -5.258 12.098 C-5.071 11.762 -5.071 11.762 -4.125 10.062 C-2.639 7.367 -1.688 4.997 -1 2 C-0.67 1.34 -0.34 0.68 0 0 Z " fill="#304858" transform="translate(915,479)"/>
<path d="M0 0 C0.99 0.33 1.98 0.66 3 1 C2.1 2.035 1.179 3.053 0.25 4.062 C-0.005 4.347 -0.005 4.347 -1.297 5.785 C-3 7 -3 7 -5.203 6.684 C-5.796 6.458 -6.389 6.232 -7 6 C-4.743 3.665 -2.719 1.813 0 0 Z " fill="#234156" transform="translate(453,302)"/>
<path d="M0 0 C0.66 0.33 1.32 0.66 2 1 C1.67 2.65 1.34 4.3 1 6 C-4.281 6.305 -5.577 6.317 -10 3 C-6.7 3.33 -3.4 3.66 0 4 C0 2.68 0 1.36 0 0 Z " fill="#364B59" transform="translate(963,629)"/>
<path d="M0 0 C4.065 0.301 7.589 2.966 11 5 C7.292 6.236 6.325 5.568 2.812 4.062 C1.911 3.682 1.01 3.302 0.082 2.91 C-0.605 2.61 -1.292 2.309 -2 2 C-1.34 1.34 -0.68 0.68 0 0 Z " fill="#416F92" transform="translate(677,630)"/>
<path d="M0 0 C-4.743 2.372 -8.309 3.263 -13.625 3.562 C-13.978 3.584 -13.978 3.584 -15.766 3.693 C-17.51 3.799 -19.255 3.9 -21 4 C-17.807 1.872 -15.926 1.468 -12.188 0.875 C-11.17 0.707 -10.153 0.54 -9.105 0.367 C-6.038 0.004 -3.086 -0.065 0 0 Z " fill="#BDD4E0" transform="translate(534,626)"/>
<path d="M0 0 C0.66 0.66 1.32 1.32 2 2 C-0.64 4.64 -3.28 7.28 -6 10 C-6.33 9.01 -6.66 8.02 -7 7 C-4.69 4.69 -2.38 2.38 0 0 Z " fill="#1C3749" transform="translate(862,451)"/>
<path d="M0 0 C-1.485 0.99 -1.485 0.99 -9 6 C-9.165 5.175 -9.165 5.175 -10 1 C-3.375 -1.125 -3.375 -1.125 0 0 Z " fill="#A4C7DC" transform="translate(278,610)"/>
<path d="M0 0 C0.66 0.33 1.32 0.66 2 1 C1.34 1.33 1.34 1.33 -2 3 C-1.34 2.01 -0.68 1.02 0 0 Z M-4 3 C-3.34 3.33 -2.68 3.66 -2 4 C-2.99 5.98 -3.98 7.96 -5 10 C-6.32 9.67 -7.64 9.34 -9 9 C-9 8.34 -9 7.68 -9 7 C-7.374 5.618 -5.707 4.281 -4 3 Z " fill="#416C8D" transform="translate(624,384)"/>
<path d="M0 0 C0.33 0.99 0.66 1.98 1 3 C-1.97 4.32 -4.94 5.64 -8 7 C-8.33 6.01 -8.66 5.02 -9 4 C-7.68 4 -6.36 4 -5 4 C-4.67 3.34 -4.34 2.68 -4 2 C-1.938 0.875 -1.938 0.875 0 0 Z " fill="#527C99" transform="translate(197,525)"/>
<path d="M0 0 C-2.773 1.849 -4.4 2.521 -7.562 3.25 C-8.348 3.441 -9.133 3.632 -9.941 3.828 C-10.281 3.856 -10.281 3.856 -12 4 C-12.66 3.34 -13.32 2.68 -14 2 C-9.127 0.409 -5.192 -0.212 0 0 Z " fill="#3E5562" transform="translate(963,373)"/>
<path d="M0 0 C-1.443 3.366 -3.333 5.51 -6 8 C-6.99 7.01 -7.98 6.02 -9 5 C-7.879 4.161 -6.753 3.329 -5.625 2.5 C-4.999 2.036 -4.372 1.572 -3.727 1.094 C-2 0 -2 0 0 0 Z " fill="#2E4758" transform="translate(433,289)"/>
<path d="M0 0 C-0.75 2.438 -0.75 2.438 -2 5 C-4.125 5.812 -4.125 5.812 -6 6 C-5.67 4.68 -5.34 3.36 -5 2 C-5.66 1.67 -6.32 1.34 -7 1 C-4.537 -0.231 -2.72 -0.072 0 0 Z " fill="#BFDDF2" transform="translate(270,612)"/>
<path d="M0 0 C0.99 0 1.98 0 3 0 C2.34 2.64 1.68 5.28 1 8 C0.01 7.67 -0.98 7.34 -2 7 C-1.125 1.125 -1.125 1.125 0 0 Z " fill="#3D6F8E" transform="translate(635,478)"/>
<path d="M0 0 C3.27 0.564 4.826 1.5 7 4 C4.36 4.33 1.72 4.66 -1 5 C-0.67 3.35 -0.34 1.7 0 0 Z " fill="#22435B" transform="translate(265,607)"/>
<path d="M0 0 C2.31 0 4.62 0 7 0 C5.35 1.65 3.7 3.3 2 5 C1.01 4.34 0.02 3.68 -1 3 C-0.67 2.01 -0.34 1.02 0 0 Z " fill="#C4E6F4" transform="translate(135,530)"/>
<path d="M0 0 C0.66 0 1.32 0 2 0 C2.247 0.804 2.495 1.609 2.75 2.438 C4 5 4 5 6.125 5.812 C6.434 5.843 6.434 5.843 8 6 C8 6.66 8 7.32 8 8 C5.125 7.688 5.125 7.688 2 7 C0 4 0 4 0 0 Z " fill="#457493" transform="translate(667,488)"/>
<path d="M0 0 C0.66 0.33 1.32 0.66 2 1 C1.505 1.433 1.01 1.866 0.5 2.312 C-1 4 -1 4 -1 7 C-2.98 6.34 -4.96 5.68 -7 5 C-2.25 1.125 -2.25 1.125 0 0 Z " fill="#CEDFE7" transform="translate(761,445)"/>
<path d="M0 0 C0.66 0.33 1.32 0.66 2 1 C-0.681 4.574 -3.426 7.319 -7 10 C-7.66 9.67 -8.32 9.34 -9 9 C-6.03 6.03 -3.06 3.06 0 0 Z " fill="#0F2E41" transform="translate(299,570)"/>
<path d="M0 0 C3.96 0 7.92 0 12 0 C7.5 3.375 7.5 3.375 3 3 C3 2.34 3 1.68 3 1 C2.01 0.67 1.02 0.34 0 0 Z " fill="#133147" transform="translate(168,522)"/>
<path d="M0 0 C0.99 0.99 1.98 1.98 3 3 C3 3.99 3 4.98 3 6 C2.34 6 1.68 6 1 6 C1 8.64 1 11.28 1 14 C0.67 14 0.34 14 0 14 C0 9.38 0 4.76 0 0 Z " fill="#B8DBEA" transform="translate(255,501)"/>
<path d="M0 0 C1.067 3.202 1.11 3.949 0 7 C-1.438 9.25 -1.438 9.25 -3 11 C-3.66 11 -4.32 11 -5 11 C-3.55 7.209 -1.848 3.613 0 0 Z " fill="#2D4659" transform="translate(356,342)"/>
<path d="M0 0 C0.33 0 0.66 0 1 0 C0.67 2.31 0.34 4.62 0 7 C-1.65 6.67 -3.3 6.34 -5 6 C-3.358 3.979 -1.691 1.98 0 0 Z " fill="#426C88" transform="translate(454,304)"/>
<path d="M0 0 C3.63 0.66 7.26 1.32 11 2 C10.67 2.495 10.67 2.495 9 5 C5.853 4.301 2.974 3.239 0 2 C0 1.34 0 0.68 0 0 Z " fill="#5E8096" transform="translate(436,304)"/>
<path d="M0 0 C0.66 0.33 1.32 0.66 2 1 C1.175 2.155 1.175 2.155 -3 8 C-3.99 7.34 -4.98 6.68 -6 6 C-4.02 4.02 -2.04 2.04 0 0 Z " fill="#123651" transform="translate(396,293)"/>
<path d="M0 0 C1.65 0 3.3 0 5 0 C4.67 1.98 4.34 3.96 4 6 C2.624 4.71 1.292 3.373 0 2 C0 1.34 0 0.68 0 0 Z " fill="#477BA0" transform="translate(357,669)"/>
<path d="M0 0 C3.375 0.547 5.082 1.055 8 3 C7.34 4.32 6.68 5.64 6 7 C5.67 5.68 5.34 4.36 5 3 C3.35 2.67 1.7 2.34 0 2 C0 1.34 0 0.68 0 0 Z " fill="#354B5A" transform="translate(733,581)"/>
<path d="M0 0 C0.99 0.33 1.98 0.66 3 1 C1.902 3.993 1.323 4.846 -1.625 6.25 C-2.409 6.497 -3.192 6.745 -4 7 C-4 6.01 -4 5.02 -4 4 C-2.68 4 -1.36 4 0 4 C0 2.68 0 1.36 0 0 Z " fill="#263D4C" transform="translate(792,551)"/>
<path d="M0 0 C0.66 0.165 0.66 0.165 4 1 C4 2.98 4 4.96 4 7 C3.175 6.67 3.175 6.67 -1 5 C-0.34 4.67 0.32 4.34 1 4 C0.67 2.68 0.34 1.36 0 0 Z " fill="#2C4A5E" transform="translate(153,542)"/>
<path d="M0 0 C0.66 0.33 1.32 0.66 2 1 C0.35 2.98 -1.3 4.96 -3 7 C-3.99 6.67 -4.98 6.34 -6 6 C-2.25 1.125 -2.25 1.125 0 0 Z " fill="#CFEBF9" transform="translate(212,514)"/>
<path d="M0 0 C2.296 3.445 2.54 5.938 3 10 C2.01 10.33 1.02 10.66 0 11 C0 7.37 0 3.74 0 0 Z " fill="#CBEAF8" transform="translate(312,499)"/>
<path d="M0 0 C1.675 0.286 3.344 0.618 5 1 C4.34 2.98 3.68 4.96 3 7 C0.752 4.948 -0.002 3.993 -1 1 C-0.67 0.67 -0.34 0.34 0 0 Z " fill="#345A73" transform="translate(259,505)"/>
<path d="M0 0 C0.99 0.66 1.98 1.32 3 2 C-2.625 6 -2.625 6 -6 6 C-6 5.34 -6 4.68 -6 4 C-4.039 2.611 -2.038 1.274 0 0 Z " fill="#243E4F" transform="translate(116,469)"/>
<path d="M0 0 C-2.97 1.65 -5.94 3.3 -9 5 C-9 3.68 -9 2.36 -9 1 C-3.375 -1.125 -3.375 -1.125 0 0 Z " fill="#406985" transform="translate(667,382)"/>
<path d="M0 0 C1.32 0.33 2.64 0.66 4 1 C4 1.66 4 2.32 4 3 C5.32 3 6.64 3 8 3 C8 3.66 8 4.32 8 5 C4.7 4.34 1.4 3.68 -2 3 C-1.34 2.67 -0.68 2.34 0 2 C0 1.34 0 0.68 0 0 Z " fill="#374C5D" transform="translate(232,642)"/>
<path d="M0 0 C2.97 0.33 5.94 0.66 9 1 C8.67 1.66 8.34 2.32 8 3 C5.03 3 2.06 3 -1 3 C-0.67 2.01 -0.34 1.02 0 0 Z " fill="#12324A" transform="translate(238,610)"/>
<path d="M0 0 C0.66 0 1.32 0 2 0 C2.66 2.97 3.32 5.94 4 9 C3.67 9.165 3.67 9.165 2 10 C0.396 6.492 -0.22 3.856 0 0 Z " fill="#2D4453" transform="translate(59,551)"/>
<path d="M0 0 C1.316 0.953 2.628 1.913 3.938 2.875 C4.668 3.409 5.399 3.942 6.152 4.492 C8 6 8 6 9 8 C4.565 6.606 2.126 4.394 -1 1 C-0.67 0.67 -0.34 0.34 0 0 Z " fill="#436783" transform="translate(392,703)"/>
<path d="M0 0 C2.97 1.65 5.94 3.3 9 5 C9 5.66 9 6.32 9 7 C5.131 6.427 2.848 4.61 0 2 C0 1.34 0 0.68 0 0 Z " fill="#25485C" transform="translate(198,608)"/>
<path d="M0 0 C0.33 0.66 0.66 1.32 1 2 C-0.65 3.98 -2.3 5.96 -4 8 C-4.33 7.01 -4.66 6.02 -5 5 C-3.35 3.35 -1.7 1.7 0 0 Z " fill="#264154" transform="translate(854,459)"/>
<path d="M0 0 C0.66 0.66 1.32 1.32 2 2 C0.35 3.65 -1.3 5.3 -3 7 C-3.99 6.67 -4.98 6.34 -6 6 C-4.02 4.02 -2.04 2.04 0 0 Z " fill="#A2CFEA" transform="translate(547,456)"/>
<path d="M0 0 C0.66 0.33 1.32 0.66 2 1 C0 4 -2 7 -4 10 C-3.385 3.477 -3.385 3.477 -1.438 1.062 C-1.2 0.887 -1.2 0.887 0 0 Z " fill="#184669" transform="translate(388,410)"/>
<path d="M0 0 C0.66 0 1.32 0 2 0 C4 7.625 4 7.625 4 11 C0.471 6.919 0 5.316 0 0 Z " fill="#5F7A8E" transform="translate(477,316)"/>
<path d="M0 0 C0.66 0.33 1.32 0.66 2 1 C-0.31 2.65 -2.62 4.3 -5 6 C-5.33 5.34 -5.66 4.68 -6 4 C-3.948 1.752 -2.993 0.998 0 0 Z " fill="#E9F9FD" transform="translate(707,554)"/>
<path d="M0 0 C0.382 0.402 0.382 0.402 2.312 2.438 C5 5 5 5 8 6 C7.67 6.99 7.34 7.98 7 9 C4.036 6.192 1.555 3.817 0 0 Z " fill="#243A4B" transform="translate(859,552)"/>
<path d="M0 0 C0 0.66 0 1.32 0 2 C1.32 2.33 2.64 2.66 4 3 C0.37 3 -3.26 3 -7 3 C-4.746 0.746 -3.208 0 0 0 Z " fill="#1A4B73" transform="translate(375,549)"/>
<path d="M0 0 C0 1.65 0 3.3 0 5 C-1.98 4.01 -3.96 3.02 -6 2 C-3 0 -3 0 0 0 Z " fill="#406884" transform="translate(133,532)"/>
<path d="M0 0 C1.458 -0.054 2.916 -0.093 4.375 -0.125 C5.187 -0.148 5.999 -0.171 6.836 -0.195 C9 0 9 0 11 2 C9.02 2.33 7.04 2.66 5 3 C5 2.34 5 1.68 5 1 C3.35 1 1.7 1 0 1 C0 0.67 0 0.34 0 0 Z " fill="#C5DCE5" transform="translate(666,511)"/>
<path d="M0 0 C0.825 0.165 0.825 0.165 5 1 C5 1.66 5 2.32 5 3 C5.66 3 6.32 3 7 3 C7.33 3.99 7.66 4.98 8 6 C4.086 4.731 2.209 3.488 0 0 Z " fill="#DCF0F7" transform="translate(524,346)"/>
<path d="M0 0 C2.438 0.375 2.438 0.375 5 1 C5.33 1.66 5.66 2.32 6 3 C5.67 3.99 5.34 4.98 5 6 C4.34 6 3.68 6 3 6 C2.01 4.02 1.02 2.04 0 0 Z " fill="#2E495B" transform="translate(758,563)"/>
<path d="M0 0 C1.709 1.623 3.374 3.293 5 5 C5 5.66 5 6.32 5 7 C3.68 6.67 2.36 6.34 1 6 C0.67 4.02 0.34 2.04 0 0 Z " fill="#8FA7B7" transform="translate(229,539)"/>
<path d="M0 0 C0.495 0.33 0.495 0.33 3 2 C3 2.66 3 3.32 3 4 C2.34 4 1.68 4 1 4 C1.33 5.32 1.66 6.64 2 8 C1.34 7.67 0.68 7.34 0 7 C-0.688 4 -0.688 4 -1 1 C-0.67 0.67 -0.34 0.34 0 0 Z " fill="#799BB0" transform="translate(277,528)"/>
<path d="M0 0 C2.938 0.812 2.938 0.812 6 2 C6.33 2.99 6.66 3.98 7 5 C1.25 3.25 1.25 3.25 -1 1 C-0.67 0.67 -0.34 0.34 0 0 Z " fill="#5D84A1" transform="translate(105,521)"/>
<path d="M0 0 C0.33 0.99 0.66 1.98 1 3 C-0.32 3.99 -1.64 4.98 -3 6 C-3.66 5.34 -4.32 4.68 -5 4 C-3.35 2.68 -1.7 1.36 0 0 Z " fill="#274052" transform="translate(98,482)"/>
<path d="M0 0 C0.66 0.33 1.32 0.66 2 1 C1.34 2.32 0.68 3.64 0 5 C-0.825 4.67 -0.825 4.67 -5 3 C-3 1 -3 1 0 0 Z " fill="#CCE1E8" transform="translate(789,459)"/>
<path d="M0 0 C3.3 0.33 6.6 0.66 10 1 C9.505 1.495 9.505 1.495 7 4 C4.69 3.01 2.38 2.02 0 1 C0 0.67 0 0.34 0 0 Z " fill="#658398" transform="translate(508,341)"/>
</svg>
